<svg version="1.1" id="Layer_1" xmlns="http://www.w3.org/2000/svg" xmlns:xlink="http://www.w3.org/1999/xlink" x="0px" y="0px"
	 width="100%" viewBox="0 0 896 1196" enable-background="new 0 0 896 1196" xml:space="preserve">
<path fill="none" opacity="1.000000" stroke="#f0eaff" stroke-linecap="round" stroke-linejoin="round" stroke-width="3.000000"
	d="
M661.500000,611.500000 
	C660.946899,601.686401 658.014343,592.251770 656.923889,582.508545 
	C656.140991,575.513062 653.120972,569.001953 654.662048,561.431213 
	C655.534424,557.145630 653.195679,552.114319 651.963562,547.509766 
	C648.121826,533.152283 645.053284,518.640808 642.450989,504.008728 
	C640.013184,490.301361 636.913940,476.709717 634.576294,462.987000 
	C632.542847,451.049500 630.900696,439.029449 629.568115,426.992462 
	C627.947937,412.357574 626.411133,397.689606 625.612671,382.993866 
	C624.722961,366.616913 622.010315,350.562073 619.033203,334.493866 
	C612.095642,297.050049 595.713135,264.003387 571.356506,235.120987 
	C552.502563,212.763718 529.234436,196.334946 500.523193,188.415909 
	C492.876892,186.306915 485.255890,185.741150 477.509857,186.589996 
	C474.554474,186.913849 471.357727,187.548767 469.500000,190.500000 
"/>
<path fill="none" opacity="1.000000" stroke="#f0eaff" stroke-linecap="round" stroke-linejoin="round" stroke-width="3.000000"
	d="
M466.500000,190.500000 
	C462.346619,185.037430 455.887726,184.356369 449.977142,183.108276 
	C435.842621,180.123550 422.525055,184.432236 410.069702,190.151810 
	C363.326263,211.616699 331.064240,247.343170 310.572083,294.031647 
	C303.652924,309.795990 298.658844,326.312256 294.648468,343.035614 
	C292.779907,350.827332 292.499969,359.000000 291.499969,367.000000 
	C290.666626,373.666656 290.080292,380.377167 288.907959,386.983673 
	C288.198151,390.983673 288.085907,395.051605 287.715240,399.020111 
	C285.691559,420.684082 283.931641,442.369232 281.571716,464.007812 
	C279.558228,482.470001 278.350586,501.019135 276.428925,519.492615 
	C275.329498,530.061157 273.929504,540.618347 271.513184,551.003052 
	C269.944000,557.747070 269.655945,564.689148 268.653198,571.522461 
	C265.678101,591.797058 261.753876,611.817993 256.050354,631.514587 
	C251.631454,646.774841 247.381149,662.098328 243.683853,677.544006 
	C242.650864,681.859314 241.895584,686.261780 240.483994,690.494690 
	C239.806671,692.525635 239.147247,694.548767 240.523849,696.483032 
	C241.456848,697.793945 241.091354,699.220276 240.946579,700.493958 
	C238.377975,723.093018 237.086563,745.752014 237.500000,768.500000 
"/>
<path fill="none" opacity="1.000000" stroke="#f0eaff" stroke-linecap="round" stroke-linejoin="round" stroke-width="4.000000"
	d="
M843.500000,899.500000 
	C845.166687,910.333313 846.760681,921.178467 848.516113,931.997375 
	C851.616455,951.105042 854.514587,970.241699 856.472534,989.502808 
	C857.945007,1003.988647 859.205994,1018.496521 860.485046,1033.001343 
	C861.233887,1041.494019 861.478394,1050.046509 862.585266,1058.488892 
	C864.154358,1070.457397 864.865295,1082.506836 865.335815,1094.506470 
	C866.563782,1125.823120 868.032776,1157.143311 868.022217,1188.500000 
	C868.021301,1191.166626 868.333313,1193.833374 868.500000,1196.500000 
"/>
<path fill="none" opacity="1.000000" stroke="#f0eaff" stroke-linecap="round" stroke-linejoin="round" stroke-width="4.000000"
	d="
M461.500000,222.000000 
	C436.952789,219.983856 416.238434,229.391068 397.543701,244.055695 
	C375.776978,261.130066 362.093903,283.872070 352.414429,309.467651 
	C345.172302,328.618042 342.107727,348.735260 337.537231,368.508606 
	C335.815521,375.957123 335.342438,384.009827 332.629822,390.853271 
	C327.357910,404.153198 327.915619,417.893799 326.621857,431.511566 
	C326.185425,436.105103 326.750885,440.909943 327.593475,445.482788 
	C329.000427,453.118378 328.942780,460.826813 329.457703,468.502838 
	C329.982330,476.323334 329.734802,484.214813 330.601746,491.988647 
	C331.884705,503.492737 331.835358,515.172668 334.573669,526.482178 
	C335.625183,530.825073 334.162598,534.892273 333.786163,538.980286 
	C332.679535,550.997375 332.295563,562.950989 332.925079,575.003906 
	C333.489929,585.818665 334.237122,596.666016 333.012207,607.501404 
	C332.919220,608.324158 332.982880,609.167114 333.002472,609.999939 
	C333.479492,630.261963 332.013275,650.430115 329.437347,670.491943 
	C325.557861,700.706238 319.000336,730.320068 308.539551,759.014404 
	C304.206482,770.900208 298.929749,782.376892 293.932983,793.971130 
	C289.839233,803.470032 288.304443,813.571167 286.014191,823.503296 
	C281.500580,843.077759 278.779327,862.847778 278.381348,882.997681 
	C278.075256,898.497192 277.860199,914.005371 277.375244,929.496094 
	C276.779938,948.512451 277.783478,967.500000 277.500000,986.500000 
"/>
<path fill="none" opacity="1.000000" stroke="#f0eaff" stroke-linecap="round" stroke-linejoin="round" stroke-width="4.000000"
	d="
M110.500000,932.000000 
	C108.673271,945.945007 107.422195,959.925232 106.924942,973.997375 
	C106.435699,987.842834 105.888832,1001.727844 104.374390,1015.486145 
	C101.883728,1038.113281 100.221329,1060.783569 98.996986,1083.499878 
	C98.179512,1098.667358 96.584351,1113.841064 96.739861,1128.997559 
	C96.861618,1140.864014 96.244812,1152.668335 95.980042,1164.499512 
	C95.741287,1175.168335 95.333321,1185.833374 94.999992,1196.500000 
"/>
<path fill="none" opacity="1.000000" stroke="#f0eaff" stroke-linecap="round" stroke-linejoin="round" stroke-width="3.000000"
	d="
M563.500000,275.500000 
	C569.864136,287.058533 573.831970,299.584167 577.948730,312.016968 
	C584.850769,332.861969 589.210571,354.351074 592.326538,376.024933 
	C593.896423,386.944702 594.789795,398.005768 595.890930,409.010925 
	C596.250854,412.608185 595.327698,416.332855 595.000977,420.000092 
	C593.102600,441.305359 592.553528,462.696991 590.740417,484.020447 
	C589.800049,495.079773 588.598755,506.289673 589.884583,517.513245 
	C590.187378,520.156494 591.039551,523.206787 589.000000,525.750000 
"/>
<path fill="none" opacity="1.000000" stroke="#f0eaff" stroke-linecap="round" stroke-linejoin="round" stroke-width="2.000000"
	d="
M597.000000,414.000000 
	C598.799805,420.715485 599.139160,427.648926 599.407959,434.503601 
	C600.160278,453.686646 600.626465,472.862732 602.399292,492.009308 
	C604.648804,516.304077 606.235107,540.661804 607.980957,565.001343 
	C609.774658,590.007751 609.295471,615.005859 607.559509,640.004150 
	C607.156372,645.809448 607.500000,651.666687 607.500000,657.500000 
"/>
<path fill="none" opacity="1.000000" stroke="#f0eaff" stroke-linecap="round" stroke-linejoin="round" stroke-width="2.000000"
	d="
M260.500000,645.500000 
	C258.166656,655.666687 255.677063,665.800720 253.546265,676.009644 
	C251.614883,685.263123 249.929382,694.570068 248.984161,703.998413 
	C246.566879,728.109985 245.037323,752.258423 244.375107,776.496582 
	C243.733429,799.983032 241.051437,823.348816 236.930634,846.487671 
	C233.476898,865.880798 228.465088,884.943298 223.490021,903.997375 
	C219.874588,917.844055 216.141312,931.660095 212.543137,945.511230 
	C212.218689,946.760254 212.500000,948.166687 212.500000,949.500000 
"/>
<path fill="none" opacity="1.000000" stroke="#f0eaff" stroke-linecap="round" stroke-linejoin="round" stroke-width="2.000000"
	d="
M734.000000,912.500000 
	C738.312378,927.716858 740.292114,943.331421 742.017517,958.998047 
	C743.536865,972.794250 744.165894,986.657043 744.362976,1000.501953 
	C744.528870,1012.159180 743.532166,1023.834839 742.987976,1035.499390 
	C742.661438,1042.499634 741.560852,1049.390625 741.659485,1056.504761 
	C741.753479,1063.286377 739.638000,1070.211304 738.108398,1077.024292 
	C735.252197,1089.746460 732.316833,1102.481812 731.000000,1115.500000 
"/>
<path fill="none" opacity="1.000000" stroke="#f0eaff" stroke-linecap="round" stroke-linejoin="round" stroke-width="3.000000"
	d="
M569.000000,527.000000 
	C564.188354,531.472534 562.406189,537.924316 558.524658,543.018799 
	C554.909119,547.764099 552.476013,554.349365 547.759399,557.085144 
	C541.496460,560.717896 536.345093,565.522034 530.469482,569.454407 
	C520.750671,575.958984 511.334808,582.920654 501.024384,588.544678 
	C490.463959,594.305176 480.343719,601.372009 467.991913,602.403015 
	C442.890808,604.498291 419.482025,599.522339 399.004974,583.993408 
	C384.256226,572.808533 368.900848,562.388916 355.485992,549.514587 
	C353.306152,547.422546 350.662231,547.616577 348.000000,548.500000 
"/>
<path fill="none" opacity="1.000000" stroke="#f0eaff" stroke-linecap="round" stroke-linejoin="round" stroke-width="2.000000"
	d="
M616.500000,405.500000 
	C616.572083,417.666656 615.791382,429.814209 616.405334,442.004761 
	C617.200073,457.785950 618.717163,473.417786 621.353333,489.024780 
	C624.272827,506.309540 627.656250,523.524353 629.611816,540.987488 
	C631.365479,556.647888 633.715088,572.224304 634.711487,587.986633 
	C635.016602,592.814026 635.289917,597.658142 635.500000,602.500000 
"/>
<path fill="none" opacity="1.000000" stroke="#f0eaff" stroke-linecap="round" stroke-linejoin="round" stroke-width="3.000000"
	d="
M469.500000,221.500000 
	C475.874268,225.044434 483.446045,223.743454 490.069214,226.852570 
	C496.329071,229.791107 502.236145,232.858963 507.563843,237.425507 
	C536.611023,262.322754 556.847534,293.258820 571.020935,328.491577 
	C577.226379,343.917297 578.876953,360.251892 580.977234,376.502930 
	C581.944275,383.985657 582.666687,391.500000 583.500000,399.000000 
"/>
<path fill="none" opacity="1.000000" stroke="#f0eaff" stroke-linecap="round" stroke-linejoin="round" stroke-width="2.000000"
	d="
M337.000000,541.500000 
	C339.068207,552.742554 338.769470,564.158936 339.505219,575.499634 
	C340.898895,596.981689 340.975952,618.516418 342.340668,640.010132 
	C343.300598,655.128784 344.636871,670.354675 343.357086,685.487915 
	C342.100281,700.349121 341.653748,715.331177 338.540710,730.008667 
	C338.236267,731.444092 338.500000,733.000000 338.500000,734.500000 
"/>
<path fill="none" opacity="1.000000" stroke="#f0eaff" stroke-linecap="round" stroke-linejoin="round" stroke-width="4.000000"
	d="
M335.500000,530.000000 
	C338.642639,529.976440 340.815521,532.122253 341.351074,534.533081 
	C342.913208,541.565125 346.961517,547.445679 349.572662,553.970947 
	C350.819458,557.086670 352.046661,560.096252 352.004578,563.500061 
	C351.937286,568.941223 354.838745,573.690918 355.570221,578.990295 
	C356.904541,588.656860 358.566315,598.266968 359.606384,607.988647 
	C360.569427,616.990662 362.039215,625.935913 362.518219,634.999023 
	C363.108582,646.169739 363.832397,657.333374 364.500305,668.500000 
	C364.998749,676.833374 365.907471,685.166687 365.907684,693.500000 
	C365.908020,707.128784 363.881622,720.572571 361.619995,734.020203 
	C359.157532,748.661499 356.333344,763.267761 354.594818,778.011169 
	C352.832001,792.960510 351.200928,807.979614 350.716644,823.006958 
	C350.379333,833.474426 351.759796,844.014038 352.829254,854.517395 
	C355.010345,875.938354 362.037659,896.457886 363.650696,917.988708 
	C364.713837,932.179138 364.158356,946.333557 364.500000,960.500000 
"/>
<path fill="none" opacity="1.000000" stroke="#f0eaff" stroke-linecap="round" stroke-linejoin="round" stroke-width="2.000000"
	d="
M308.500000,450.500000 
	C308.500000,471.500000 308.659668,492.501740 308.432678,513.499268 
	C308.319153,524.003479 307.956146,534.545776 306.908386,544.990784 
	C304.463409,569.364746 302.658386,593.822327 298.485565,617.997498 
	C297.245758,625.180359 295.833313,632.333313 294.499969,639.500000 
"/>
<path fill="none" opacity="1.000000" stroke="#f0eaff" stroke-linecap="round" stroke-linejoin="round" stroke-width="3.000000"
	d="
M239.000000,692.500000 
	C236.788239,691.612427 235.215591,692.946289 233.490311,693.983887 
	C220.114136,702.028259 206.377518,709.513123 191.917480,715.293579 
	C182.827957,718.927124 174.631744,723.624756 167.611038,730.120056 
	C162.312485,735.021912 159.070801,741.747559 155.559143,748.033020 
	C145.427811,766.166992 136.638306,784.938599 131.053162,805.014771 
	C126.622437,820.941345 122.719543,837.014038 118.481293,852.995056 
	C115.684334,863.541382 111.388260,873.554260 106.935715,883.471130 
	C104.475883,888.949829 102.618980,894.598694 102.648300,900.499268 
	C102.673294,905.530518 101.751587,910.366638 100.285194,914.930969 
	C99.197151,918.317688 99.663071,920.226929 101.969940,922.530090 
	C112.482201,933.025513 125.220093,940.451721 137.513885,948.478760 
	C151.060608,957.323792 165.392929,964.678955 180.500000,970.500000 
"/>
<path fill="none" opacity="1.000000" stroke="#f0eaff" stroke-linecap="round" stroke-linejoin="round" stroke-width="3.000000"
	d="
M656.000000,563.000000 
	C658.833313,570.000000 661.553406,577.048340 664.519653,583.991577 
	C677.045837,613.311829 691.387878,641.662354 709.447205,668.036133 
	C711.144592,670.515076 713.003784,671.618652 715.909180,672.736145 
	C726.011475,676.621887 736.351990,679.782166 746.521973,683.438843 
	C753.591553,685.980774 758.702454,691.319214 764.378113,695.659363 
	C780.367493,707.886230 792.611145,723.674561 802.285278,741.119080 
	C808.118958,751.638489 812.465515,763.117676 816.363892,774.546448 
	C823.700439,796.054504 832.043152,817.137329 840.982605,838.007446 
	C842.681274,841.973206 843.656860,846.124023 843.515381,850.500488 
	C843.403137,853.971924 844.389343,857.208496 845.411499,860.527283 
	C847.694641,867.940063 849.387939,875.532288 851.536987,882.989319 
	C853.128601,888.512268 851.295410,893.080444 846.937866,895.904114 
	C823.459534,911.118408 802.697388,930.315552 777.523438,943.046387 
	C769.207764,947.251770 761.166687,952.000000 753.000000,956.500000 
"/>
<path fill="none" opacity="1.000000" stroke="#f0eaff" stroke-linecap="round" stroke-linejoin="round" stroke-width="2.000000"
	d="
M643.500000,584.500000 
	C643.284302,590.106934 644.920044,595.513062 645.719788,600.967773 
	C646.892761,608.968628 647.452148,616.976807 647.970154,625.001953 
	C649.799805,653.350708 652.142334,681.628784 657.987122,709.502686 
	C661.777161,727.577637 667.317261,745.130493 673.500000,762.500000 
"/>
<path fill="none" opacity="1.000000" stroke="#f0eaff" stroke-linecap="round" stroke-linejoin="round" stroke-width="2.000000"
	d="
M323.500000,489.500000 
	C323.348328,501.513458 324.878723,513.463745 324.569458,525.501770 
	C324.054016,545.566711 323.281891,565.580383 320.576355,585.510376 
	C318.524536,600.624756 317.273865,615.846130 315.460480,630.995300 
	C314.340240,640.354065 312.806030,649.662964 311.528168,659.003845 
	C311.326721,660.476318 311.500000,662.000000 311.500000,663.500000 
"/>
<path fill="none" opacity="1.000000" stroke="#f0eaff" stroke-linecap="round" stroke-linejoin="round" stroke-width="2.000000"
	d="
M294.500000,600.500000 
	C293.832581,608.992981 290.954376,617.011597 288.348816,624.950378 
	C280.617462,648.506348 274.151184,672.381775 268.493469,696.498474 
	C264.533813,713.376953 261.608826,730.458984 258.581665,747.514465 
	C257.414185,754.092285 257.166656,760.833313 256.499969,767.500000 
"/>
<path fill="none" opacity="1.000000" stroke="#f0eaff" stroke-linecap="round" stroke-linejoin="round" stroke-width="2.000000"
	d="
M634.500000,788.500000 
	C636.278931,798.066284 640.213074,806.954163 643.608948,815.958923 
	C651.446411,836.741089 661.834045,856.300354 672.881897,875.567749 
	C680.712585,889.224487 686.869202,903.785339 692.443604,918.521362 
	C696.563721,929.412842 700.110840,940.520264 704.086792,951.468506 
	C704.482361,952.557739 704.254944,953.513062 704.500000,954.500000 
"/>
<path fill="none" opacity="1.000000" stroke="#f0eaff" stroke-linecap="round" stroke-linejoin="round" stroke-width="2.000000"
	d="
M338.500000,862.500000 
	C338.003632,882.994080 341.703003,902.979919 345.409973,923.016663 
	C349.316925,944.134521 352.422668,965.425293 351.411530,986.995850 
	C350.820862,999.597351 350.178802,1012.265320 346.535919,1024.510742 
	C346.262634,1025.429443 346.500000,1026.500000 346.500000,1027.500000 
"/>
<path fill="none" opacity="1.000000" stroke="#f0eaff" stroke-linecap="round" stroke-linejoin="round" stroke-width="3.000000"
	d="
M652.000000,875.500000 
	C649.802795,879.333313 651.731750,883.366455 652.258362,886.962158 
	C653.775330,897.320679 652.106201,907.346375 651.057068,917.505920 
	C650.268372,925.142761 649.902771,932.828491 649.522705,940.501099 
	C648.944641,952.172913 648.671265,963.794434 649.859375,975.514282 
	C651.941467,996.053589 659.309937,1014.429993 670.511475,1031.492432 
	C671.424438,1032.882935 672.500000,1034.166626 673.500000,1035.500000 
"/>
<path fill="none" opacity="1.000000" stroke="#f0eaff" stroke-linecap="round" stroke-linejoin="round" stroke-width="2.000000"
	d="
M300.500000,458.500000 
	C301.256256,471.029053 300.050262,483.531982 299.317322,495.989258 
	C298.085541,516.926514 294.429169,537.552734 289.670654,558.039612 
	C285.921082,574.182861 281.880249,590.269653 278.548584,606.509949 
	C277.878906,609.774292 277.833313,613.166687 277.500000,616.500000 
"/>
<path fill="none" opacity="1.000000" stroke="#f0eaff" stroke-linecap="round" stroke-linejoin="round" stroke-width="2.000000"
	d="
M313.500000,854.500000 
	C313.624451,870.487244 311.557678,886.239807 309.162384,902.024658 
	C307.487244,913.063599 307.218231,924.326294 306.534271,935.502075 
	C305.922913,945.492126 305.937531,955.484192 306.419464,965.503845 
	C307.068054,978.989441 308.135223,992.377014 311.468750,1005.507935 
	C311.707275,1006.447388 311.500000,1007.500000 311.500000,1008.500000 
"/>
<path fill="none" opacity="1.000000" stroke="#f0eaff" stroke-linecap="round" stroke-linejoin="round" stroke-width="3.000000"
	d="
M559.000000,726.500000 
	C557.500000,727.166626 555.666504,727.492004 554.565918,728.567444 
	C551.843628,731.227478 548.616333,732.349670 544.998901,732.464417 
	C541.504639,732.575195 538.309326,733.971008 535.576233,735.625854 
	C528.053589,740.180603 520.301941,744.099915 512.018005,747.050537 
	C509.282013,748.025024 506.905334,749.499939 505.434174,752.467346 
	C498.137878,767.184448 488.564911,780.619690 481.375183,795.439453 
	C476.829254,804.809692 474.350922,814.789612 471.099457,824.533203 
	C467.696716,834.730286 463.185638,844.387329 458.465240,853.982910 
	C458.235779,854.449280 457.500000,854.666626 457.000000,855.000000 
"/>
<path fill="none" opacity="1.000000" stroke="#f0eaff" stroke-linecap="round" stroke-linejoin="round" stroke-width="3.000000"
	d="
M713.500000,673.000000 
	C712.816528,674.894470 714.037781,676.054443 714.945984,677.533203 
	C726.035828,695.590698 736.088623,714.229431 740.823975,735.040039 
	C743.209351,745.523132 746.191345,755.954285 747.693237,766.543518 
	C748.711487,773.723145 749.512085,781.122986 749.533630,788.499878 
	C749.560913,797.833618 750.517578,807.216553 749.842224,816.488525 
	C748.785889,830.992859 747.978394,845.523926 746.794067,860.024048 
	C745.831909,871.804016 744.826355,883.648315 744.506897,895.500183 
	C744.095337,910.770264 748.243103,925.494507 750.166931,940.478577 
	C752.290955,957.021423 751.830811,973.456726 751.120239,990.005188 
	C750.710754,999.541260 749.886475,1009.032166 748.883118,1018.487610 
	C747.600159,1030.577881 746.068909,1042.678101 743.000000,1054.500000 
"/>
<path fill="none" opacity="1.000000" stroke="#f0eaff" stroke-linecap="round" stroke-linejoin="round" stroke-width="2.000000"
	d="
M722.500000,857.500000 
	C725.932373,874.814270 729.209106,892.184204 732.108215,909.565369 
	C733.748779,919.401245 734.579773,929.525391 735.958435,939.505737 
	C738.569824,958.409485 740.448853,977.406982 740.421875,996.499878 
	C740.397156,1013.986145 738.435669,1031.331055 735.041260,1048.508179 
	C734.261658,1052.452881 734.000000,1056.500000 733.500000,1060.500000 
"/>
<path fill="none" opacity="1.000000" stroke="#f0eaff" stroke-linecap="round" stroke-linejoin="round" stroke-width="3.000000"
	d="
M723.500000,1050.500000 
	C723.089294,1068.225342 724.690125,1085.855103 725.972534,1103.501953 
	C726.207764,1106.740234 725.096069,1109.849731 724.604370,1113.016235 
	C723.908447,1117.498047 724.982788,1122.010986 725.485046,1126.501709 
	C726.452148,1135.148193 726.028503,1143.834595 725.958984,1152.499634 
	C725.842896,1166.983032 727.736450,1181.252075 729.969116,1195.504883 
	C730.146423,1196.636353 730.778503,1196.498901 731.500000,1196.500000 
"/>
<path fill="none" opacity="1.000000" stroke="#f0eaff" stroke-linecap="round" stroke-linejoin="round" stroke-width="3.000000"
	d="
M239.000000,695.500000 
	C235.687805,701.794373 234.590546,708.881470 232.777420,715.575134 
	C228.876984,729.974548 223.583923,743.859558 219.025894,758.008362 
	C213.068527,776.500854 204.031311,793.679932 196.485138,811.493713 
	C192.234192,821.528625 187.159485,831.269592 183.644440,841.549377 
	C176.944275,861.144165 172.088058,881.224365 170.445709,901.995728 
	C169.510208,913.827393 168.687927,925.634399 169.500000,937.500000 
"/>
<path fill="none" opacity="1.000000" stroke="#f0eaff" stroke-linecap="round" stroke-linejoin="round" stroke-width="2.000000"
	d="
M299.500000,903.500000 
	C299.122772,915.499023 296.128540,927.080750 292.852112,938.457397 
	C287.041992,958.631531 282.394470,978.987061 282.138702,1000.001709 
	C281.937592,1016.523132 285.148010,1032.629517 291.477783,1048.009155 
	C291.653778,1048.436768 291.500000,1049.000000 291.500000,1049.500000 
"/>
<path fill="none" opacity="1.000000" stroke="#f0eaff" stroke-linecap="round" stroke-linejoin="round" stroke-width="3.000000"
	d="
M492.500000,784.500000 
	C497.175629,776.261536 502.415619,768.327698 505.999939,759.500000 
	C509.547791,750.761963 517.366211,750.378113 525.002075,750.047485 
	C536.876343,749.533447 547.981628,746.559265 559.105347,742.273376 
	C568.096130,738.809387 575.406128,733.642334 582.593384,727.611267 
	C587.163025,723.776672 586.177612,718.584290 587.345398,713.960938 
	C587.931091,711.642090 588.380493,709.722717 590.533264,708.259277 
	C596.973267,711.670593 597.359863,718.204773 598.980103,724.005554 
	C602.367554,736.133545 602.731506,748.798584 605.810608,761.047607 
	C609.399719,775.325134 614.126038,789.165955 618.980774,803.006714 
	C620.602661,807.630676 621.391418,812.650879 623.626221,816.934143 
	C628.328735,825.946716 632.297485,835.270142 636.603638,844.451355 
	C640.618713,853.012146 645.545959,861.142273 649.989136,869.505798 
	C656.382019,881.539612 664.340332,892.657410 670.819092,904.598145 
	C674.850281,912.027832 679.136658,919.369812 682.372620,927.348877 
	C684.636353,932.930603 688.170288,938.319275 690.379333,944.046509 
	C695.746399,957.961609 701.572083,971.850037 704.302979,986.536621 
	C706.495056,998.325562 707.768311,1010.237976 706.251038,1022.531006 
	C704.251587,1038.730835 701.325623,1054.809448 699.744568,1071.023804 
	C698.913452,1079.547119 698.370667,1088.396362 700.463379,1097.008911 
	C700.731079,1098.110474 700.500000,1099.333374 700.500000,1100.500000 
"/>
<path fill="none" opacity="1.000000" stroke="#f0eaff" stroke-linecap="round" stroke-linejoin="round" stroke-width="4.000000"
	d="
M236.500000,1066.500000 
	C238.683319,1069.400879 237.815002,1072.982422 237.776993,1075.997192 
	C237.671204,1084.385986 241.259079,1092.108521 241.143463,1100.501953 
	C241.024017,1109.172607 239.105743,1117.513428 237.977158,1125.996948 
	C237.309784,1131.013550 237.204102,1136.000610 238.000900,1140.999878 
	C238.954544,1146.983276 239.166611,1153.040771 240.415237,1159.017700 
	C243.063232,1171.693237 239.782730,1183.877441 236.500000,1196.000000 
"/>
<path fill="none" opacity="1.000000" stroke="#f0eaff" stroke-linecap="round" stroke-linejoin="round" stroke-width="2.000000"
	d="
M320.500000,906.500000 
	C319.935242,919.231506 321.270264,931.881653 322.606445,944.488708 
	C323.760406,955.376404 325.927368,966.153564 327.441132,977.008240 
	C327.879395,980.150696 327.914307,983.332092 328.364716,986.519104 
	C330.167633,999.276489 329.606689,1012.163025 329.373230,1024.997681 
	C329.316437,1028.119263 328.265350,1031.273560 328.500000,1034.500000 
"/>
<path fill="none" opacity="1.000000" stroke="#f0eaff" stroke-linecap="round" stroke-linejoin="round" stroke-width="2.000000"
	d="
M329.500000,732.500000 
	C327.666656,741.666687 325.863495,750.839478 323.993561,759.998657 
	C320.428040,777.463196 314.884705,794.392090 310.011902,811.503418 
	C305.834137,826.174011 302.239044,840.988342 299.534973,856.006287 
	C299.273346,857.459167 299.500000,859.000000 299.500000,860.500000 
"/>
<path fill="none" opacity="1.000000" stroke="#f0eaff" stroke-linecap="round" stroke-linejoin="round" stroke-width="3.000000"
	d="
M722.500000,1007.500000 
	C722.162598,997.073059 720.221558,986.815552 719.210083,976.479431 
	C718.140442,965.548523 715.733398,954.872314 714.450500,944.005859 
	C713.915100,939.470703 712.558105,935.029846 712.066467,930.492798 
	C711.380493,924.162292 711.205444,917.817749 710.127930,911.478271 
	C707.635010,896.811584 704.854797,882.221558 700.452026,868.014893 
	C693.637146,846.025391 685.159363,824.696228 674.003967,804.497803 
	C673.188049,803.020447 672.696106,801.311218 671.000000,800.500000 
"/>
<path fill="none" opacity="1.000000" stroke="#f0eaff" stroke-linecap="round" stroke-linejoin="round" stroke-width="2.000000"
	d="
M335.000000,553.500000 
	C337.188629,561.563293 335.965942,569.850952 336.323120,578.007751 
	C337.197937,597.984009 337.501190,618.001892 337.386597,637.999329 
	C337.305389,652.169373 336.166656,666.333313 335.500000,680.500000 
"/>
<path fill="none" opacity="1.000000" stroke="#f0eaff" stroke-linecap="round" stroke-linejoin="round" stroke-width="2.000000"
	d="
M239.500000,772.500000 
	C238.500000,783.000000 237.861603,793.549866 236.421814,803.989197 
	C233.741135,823.425720 230.825027,842.836182 226.510391,862.002319 
	C223.863190,873.761536 221.352432,885.551453 217.532593,897.010864 
	C217.282608,897.760864 217.500000,898.666687 217.500000,899.500000 
"/>
<path fill="none" opacity="1.000000" stroke="#f0eaff" stroke-linecap="round" stroke-linejoin="round" stroke-width="2.000000"
	d="
M698.000000,724.500000 
	C702.422424,724.096985 703.678223,728.230164 705.328796,730.618347 
	C714.641235,744.091980 723.532715,757.857483 729.028748,773.489868 
	C732.759705,784.101990 735.627014,794.873901 737.632019,805.976135 
	C740.058716,819.413696 741.752991,832.843323 741.500000,846.500000 
"/>
<path fill="none" opacity="1.000000" stroke="#f0eaff" stroke-linecap="round" stroke-linejoin="round" stroke-width="2.000000"
	d="
M638.500000,708.500000 
	C639.558533,717.003784 641.655701,725.332397 644.131653,733.459900 
	C649.216919,750.152649 656.008423,766.225281 663.445312,782.025757 
	C665.957520,787.363098 668.809814,792.824951 669.832642,798.530029 
	C674.502869,824.579407 688.593384,847.287170 695.485107,872.504089 
	C699.897583,888.649170 704.159424,904.835266 708.511963,920.996765 
	C708.922424,922.520874 709.500000,924.000000 710.000000,925.500000 
"/>
<path fill="none" opacity="1.000000" stroke="#f0eaff" stroke-linecap="round" stroke-linejoin="round" stroke-width="4.000000"
	d="
M569.500000,526.250000 
	C572.440796,526.890991 572.675537,529.182495 572.474426,531.497803 
	C571.143921,546.812683 570.865540,562.198425 571.674194,577.490784 
	C572.750366,597.842468 575.606262,618.052124 579.997925,638.000427 
	C583.282227,652.918457 588.972961,667.149658 592.516113,681.996155 
	C594.683167,691.076782 596.805176,700.145508 597.612061,709.490295 
	C597.749939,711.086548 597.154053,711.924988 596.500000,713.000000 
"/>
<path fill="none" opacity="1.000000" stroke="#f0eaff" stroke-linecap="round" stroke-linejoin="round" stroke-width="2.000000"
	d="
M721.499939,903.500000 
	C722.166626,911.166687 722.580078,918.865784 723.557922,926.492554 
	C725.115234,938.638733 726.162964,950.840393 727.631958,962.984009 
	C730.067139,983.114197 730.757812,1003.270935 730.500000,1023.500000 
"/>
<path fill="none" opacity="1.000000" stroke="#f0eaff" stroke-linecap="round" stroke-linejoin="round" stroke-width="4.000000"
	d="
M590.000000,526.500000 
	C591.160645,527.383545 591.497620,528.482544 591.555664,529.997864 
	C592.031128,542.417053 594.089478,554.678162 595.355957,567.014771 
	C597.011597,583.143005 598.865417,599.269287 599.573120,615.496826 
	C599.900269,622.996704 600.976624,630.490662 600.457214,637.997070 
	C598.690125,663.533691 602.940063,688.977478 601.477295,714.498718 
	C601.381714,716.165039 602.058716,717.922546 601.000000,719.500000 
"/>
<path fill="none" opacity="1.000000" stroke="#f0eaff" stroke-linecap="round" stroke-linejoin="round" stroke-width="3.000000"
	d="
M300.500000,663.500000 
	C299.000000,673.166687 297.474915,682.829529 296.005859,692.500916 
	C293.760590,707.282043 291.108459,722.028076 287.317383,736.452026 
	C283.568481,750.715393 280.091309,765.104919 275.016846,779.006165 
	C274.784973,779.641418 275.321991,780.497192 274.500000,781.000000 
"/>
<path fill="none" opacity="1.000000" stroke="#f0eaff" stroke-linecap="round" stroke-linejoin="round" stroke-width="2.000000"
	d="
M297.500000,396.500000 
	C297.499847,410.737244 295.607086,424.842712 294.660217,439.010712 
	C293.955017,449.561859 292.892273,460.058319 291.392365,470.484528 
	C289.456787,483.939270 287.351624,497.402985 283.523041,510.506744 
	C283.343567,511.120941 283.500000,511.833344 283.500000,512.500000 
"/>
<path fill="none" opacity="1.000000" stroke="#f0eaff" stroke-linecap="round" stroke-linejoin="round" stroke-width="2.000000"
	d="
M589.000000,526.500000 
	C586.941040,529.190613 587.236145,532.529846 587.109436,535.504639 
	C585.995422,561.662781 586.710266,587.706177 591.901855,613.519714 
	C593.848999,623.200867 595.296509,632.978882 598.000000,642.500000 
"/>
<path fill="none" opacity="1.000000" stroke="#f0eaff" stroke-linecap="round" stroke-linejoin="round" stroke-width="2.000000"
	d="
M252.500000,927.500000 
	C251.500000,933.666687 250.395615,939.818665 249.528000,946.003906 
	C248.571945,952.820007 246.499115,959.843872 247.376343,966.450012 
	C248.248459,973.017395 248.125565,979.490417 248.499283,986.000061 
	C249.412338,1001.904297 251.917770,1017.479858 257.353821,1032.552734 
	C258.059906,1034.510498 259.860138,1036.157715 259.500000,1038.500000 
"/>
<path fill="none" opacity="1.000000" stroke="#f0eaff" stroke-linecap="round" stroke-linejoin="round" stroke-width="3.000000"
	d="
M237.000000,1085.500000 
	C235.090668,1090.320679 234.965347,1095.484497 234.592056,1100.506836 
	C233.421051,1116.261719 230.847000,1131.837036 228.910385,1147.488892 
	C226.986267,1163.039551 224.327759,1178.499146 222.015671,1194.002319 
	C221.894089,1194.817627 222.000000,1195.666626 222.000000,1196.500000 
"/>
<path fill="none" opacity="1.000000" stroke="#f0eaff" stroke-linecap="round" stroke-linejoin="round" stroke-width="2.000000"
	d="
M616.500000,660.500000 
	C616.500000,674.000000 616.434448,687.500427 616.516663,700.999878 
	C616.618225,717.684998 619.288879,734.099487 622.017883,750.497009 
	C623.075012,756.848572 624.333374,763.166687 625.500000,769.500000 
"/>
<path fill="none" opacity="1.000000" stroke="#f0eaff" stroke-linecap="round" stroke-linejoin="round" stroke-width="3.000000"
	d="
M396.500000,509.500000 
	C401.887207,508.965912 406.774628,511.446472 411.972443,512.192139 
	C418.514862,513.130615 424.809418,514.788574 431.532104,513.130127 
	C434.367554,512.430664 437.523407,512.821777 440.519257,513.948792 
	C448.617889,516.995422 456.737640,518.931519 465.547516,516.150513 
	C469.951385,514.760315 474.643707,517.137024 478.942963,518.225342 
	C488.129364,520.550781 497.023926,520.336487 505.972290,517.898315 
	C507.210083,517.561035 508.347565,517.766174 509.500000,517.500000 
"/>
<path fill="none" opacity="1.000000" stroke="#f0eaff" stroke-linecap="round" stroke-linejoin="round" stroke-width="2.000000"
	d="
M568.000000,530.000000 
	C569.370300,536.705078 567.669495,543.354797 567.328857,549.991211 
	C566.650513,563.205566 567.192871,576.350220 568.069275,589.495361 
	C568.504333,596.021912 569.943176,602.479248 570.433533,609.005005 
	C571.125488,618.214355 573.536499,627.054810 575.486511,636.002930 
	C575.590576,636.480286 575.500000,637.000000 575.500000,637.500000 
"/>
<path fill="none" opacity="1.000000" stroke="#f0eaff" stroke-linecap="round" stroke-linejoin="round" stroke-width="2.000000"
	d="
M332.500000,961.500000 
	C332.313751,969.405945 334.029358,977.148987 334.687195,984.984253 
	C335.795776,998.187744 336.178497,1011.322388 334.984161,1024.498535 
	C333.687622,1038.801758 330.587860,1052.753906 326.500000,1066.500000 
"/>
<path fill="none" opacity="1.000000" stroke="#f0eaff" stroke-linecap="round" stroke-linejoin="round" stroke-width="3.000000"
	d="
M720.500000,789.500000 
	C728.134216,810.901306 731.701294,833.227295 735.497742,855.500366 
	C737.343933,866.331482 739.222534,877.157776 740.954346,888.007263 
	C741.315552,890.269836 742.391968,891.628235 744.506775,891.956360 
	C746.745239,892.303589 748.139038,891.002563 749.006592,889.002869 
	C755.572510,873.869263 760.653320,858.282959 763.536255,842.006409 
	C763.861023,840.172791 764.819153,838.451965 764.500000,836.500000 
"/>
<path fill="none" opacity="1.000000" stroke="#f0eaff" stroke-linecap="round" stroke-linejoin="round" stroke-width="3.000000"
	d="
M274.500000,837.500000 
	C271.969482,838.462646 271.391083,840.791138 270.471039,842.987854 
	C265.364838,855.179871 260.000031,867.266296 255.071365,879.528687 
	C252.659378,885.529785 250.144226,891.703003 249.180969,898.027588 
	C247.268188,910.586670 242.442627,922.272522 239.317429,934.453186 
	C235.959610,947.540405 233.833176,960.833313 231.005432,974.001160 
	C229.130432,982.732483 228.805939,991.643433 227.818802,1000.479736 
	C225.865067,1017.968811 227.269165,1035.038452 231.481064,1052.004761 
	C232.105118,1054.518555 233.728775,1056.761230 233.500000,1059.500000 
"/>
<path fill="none" opacity="1.000000" stroke="#f0eaff" stroke-linecap="round" stroke-linejoin="round" stroke-width="2.000000"
	d="
M353.500000,668.500000 
	C353.500000,679.333313 353.497650,690.166687 353.500549,701.000000 
	C353.504791,717.009460 351.564697,732.774353 348.727509,748.540955 
	C347.350677,756.192078 345.039856,763.695312 344.500000,771.500000 
"/>
<path fill="none" opacity="1.000000" stroke="#f0eaff" stroke-linecap="round" stroke-linejoin="round" stroke-width="2.000000"
	d="
M625.500000,669.500000 
	C626.038574,683.907288 627.307312,698.217407 629.359802,712.520142 
	C632.205078,732.347717 636.712585,751.677917 643.473145,770.509644 
	C643.685120,771.100220 643.500000,771.833313 643.500000,772.500000 
"/>
<path fill="none" opacity="1.000000" stroke="#f0eaff" stroke-linecap="round" stroke-linejoin="round" stroke-width="2.000000"
	d="
M325.500000,361.500000 
	C324.333313,371.500000 323.197266,381.503693 321.993622,391.499237 
	C319.492737,412.267548 319.179352,433.127136 319.617340,453.997528 
	C319.682892,457.121338 320.734650,460.273560 320.500000,463.500000 
"/>
<path fill="none" opacity="1.000000" stroke="#f0eaff" stroke-linecap="round" stroke-linejoin="round" stroke-width="3.000000"
	d="
M211.500000,799.500000 
	C211.446701,801.222656 211.071976,802.830383 210.622757,804.532410 
	C206.231735,821.169067 203.172089,838.094421 199.946594,854.989807 
	C194.554932,883.231873 190.167084,911.640930 185.602875,940.016541 
	C182.862076,957.056030 180.855270,974.217529 179.912796,991.495239 
	C179.402222,1000.855225 177.708740,1010.146729 177.066879,1019.504578 
	C176.052963,1034.286865 173.016113,1048.673828 169.517960,1063.004395 
	C168.903625,1065.521118 167.271225,1067.761230 167.500000,1070.500000 
"/>
<path fill="none" opacity="1.000000" stroke="#f0eaff" stroke-linecap="round" stroke-linejoin="round" stroke-width="2.000000"
	d="
M309.500000,694.500000 
	C309.016144,706.263672 305.989838,717.612732 303.390839,728.975037 
	C298.627228,749.800781 291.097168,769.762817 282.933350,789.472412 
	C282.635223,790.192200 282.600677,790.816833 282.500000,791.500000 
"/>
<path fill="none" opacity="1.000000" stroke="#f0eaff" stroke-linecap="round" stroke-linejoin="round" stroke-width="3.000000"
	d="
M666.500000,632.500000 
	C666.898926,639.414429 669.406067,645.868103 671.091187,652.476746 
	C675.039490,667.961060 678.516541,683.590149 684.454590,698.518066 
	C687.695129,706.664795 692.024841,714.241638 696.102417,721.945801 
	C697.066650,723.767578 697.627808,725.076294 696.793579,727.018738 
	C695.993835,728.881042 696.637085,730.698364 697.473938,732.512024 
	C702.692261,743.821533 707.806213,755.179321 713.062866,766.470703 
	C713.401672,767.198486 713.399292,767.816833 713.500000,768.500000 
"/>
<path fill="none" opacity="1.000000" stroke="#f0eaff" stroke-linecap="round" stroke-linejoin="round" stroke-width="2.000000"
	d="
M674.000000,912.500000 
	C672.004333,917.080078 674.327332,921.554260 674.715942,925.981018 
	C675.593811,935.981506 676.175049,945.966187 676.609131,955.995300 
	C677.288879,971.700073 678.705139,987.369446 683.475525,1002.507690 
	C683.666687,1003.114197 683.500000,1003.833313 683.500000,1004.500000 
"/>
<path fill="none" opacity="1.000000" stroke="#f0eaff" stroke-linecap="round" stroke-linejoin="round" stroke-width="2.000000"
	d="
M346.500000,303.500000 
	C342.442749,315.885437 338.102081,328.198212 335.541718,341.008331 
	C333.989838,348.772766 332.680084,356.586334 331.959351,364.496307 
	C331.319885,371.513977 330.210297,378.488647 329.562988,385.505798 
	C329.318146,388.160431 328.953339,390.984985 330.500000,393.500000 
"/>
<path fill="none" opacity="1.000000" stroke="#f0eaff" stroke-linecap="round" stroke-linejoin="round" stroke-width="3.000000"
	d="
M246.000000,970.000000 
	C243.597824,976.628113 243.488632,983.672668 243.173279,990.507996 
	C242.574799,1003.480408 242.447632,1016.531494 243.185974,1029.489380 
	C243.715363,1038.780151 244.614166,1048.238770 248.459641,1057.017700 
	C248.765900,1057.716919 248.500000,1058.666626 248.500000,1059.500000 
"/>
<path fill="none" opacity="1.000000" stroke="#f0eaff" stroke-linecap="round" stroke-linejoin="round" stroke-width="2.000000"
	d="
M266.500000,987.500000 
	C268.166656,996.833313 270.179138,1006.120667 271.428619,1015.509521 
	C274.101868,1035.596680 272.111053,1055.302246 265.500000,1074.500000 
"/>
<path fill="none" opacity="1.000000" stroke="#f0eaff" stroke-linecap="round" stroke-linejoin="round" stroke-width="2.000000"
	d="
M287.500000,810.000000 
	C282.920471,813.979797 282.115723,819.974854 279.522736,825.011719 
	C274.523346,834.723022 273.636017,845.619446 271.724792,856.041199 
	C265.945831,887.553467 263.466370,919.419861 264.500000,951.500000 
"/>
<path fill="none" opacity="1.000000" stroke="#f0eaff" stroke-linecap="round" stroke-linejoin="round" stroke-width="3.000000"
	d="
M372.500000,710.500000 
	C373.240875,719.722534 376.505524,728.470459 377.795715,737.529114 
	C378.822632,744.739197 380.306763,751.861328 381.711639,758.958130 
	C382.846375,764.690369 385.712860,769.996643 389.918335,774.575012 
	C396.866699,782.139282 405.614136,787.922668 411.491699,796.505676 
	C416.202454,803.384766 421.900879,809.425293 428.057465,814.935791 
	C438.354614,824.152466 445.057587,835.849731 452.081635,847.450562 
	C458.215912,857.581909 461.763611,868.973633 468.061066,878.961487 
	C470.521271,882.863403 473.299316,886.707642 476.575531,889.923096 
	C483.675171,896.890808 486.286011,905.842285 487.840729,915.026978 
	C489.149902,922.760986 490.474182,930.580750 490.500000,938.500000 
"/>
<path fill="none" opacity="1.000000" stroke="#f0eaff" stroke-linecap="round" stroke-linejoin="round" stroke-width="2.000000"
	d="
M558.000000,545.500000 
	C559.309692,551.635803 558.202515,557.834778 558.466614,564.001404 
	C558.801819,571.828247 558.129028,579.674988 558.974731,587.502747 
	C559.603333,593.322144 559.778809,599.196411 560.557434,604.992310 
	C561.479858,611.858398 562.676270,618.699951 564.112305,625.476196 
	C564.463989,627.135925 564.418091,628.500000 564.000000,630.000000 
"/>
<path fill="none" opacity="1.000000" stroke="#f0eaff" stroke-linecap="round" stroke-linejoin="round" stroke-width="2.000000"
	d="
M667.500000,962.500000 
	C667.265747,985.239868 671.472839,1007.118103 680.548950,1027.978638 
	C683.416870,1034.570312 687.118713,1040.758301 691.500000,1046.500000 
"/>
<path fill="none" opacity="1.000000" stroke="#f0eaff" stroke-linecap="round" stroke-linejoin="round" stroke-width="2.000000"
	d="
M561.000000,540.500000 
	C562.784790,542.806458 562.105347,545.524292 561.933777,547.995422 
	C560.821533,564.019043 561.384888,580.029663 562.617859,595.990906 
	C563.291321,604.708557 565.148987,613.336182 566.555725,621.990906 
	C566.621399,622.394836 567.500000,622.666626 568.000000,623.000000 
"/>
<path fill="none" opacity="1.000000" stroke="#f0eaff" stroke-linecap="round" stroke-linejoin="round" stroke-width="2.000000"
	d="
M564.500000,541.500000 
	C564.500000,553.833313 564.105591,566.182800 564.609131,578.495544 
	C565.129395,591.216187 566.703308,603.875977 568.117676,616.542664 
	C568.887573,623.437195 571.018921,630.391479 570.000000,637.500000 
"/>
<path fill="none" opacity="1.000000" stroke="#f0eaff" stroke-linecap="round" stroke-linejoin="round" stroke-width="2.000000"
	d="
M639.000000,851.500000 
	C636.701782,855.117371 639.006897,858.798340 639.755859,861.938965 
	C643.038879,875.705994 642.964722,889.511536 642.682617,903.503662 
	C642.486084,913.249023 640.112183,922.760620 640.500000,932.500000 
"/>
<path fill="none" opacity="1.000000" stroke="#f0eaff" stroke-linecap="round" stroke-linejoin="round" stroke-width="2.000000"
	d="
M559.500000,288.500000 
	C562.666687,295.833344 566.148193,303.049255 568.934937,310.524261 
	C574.866577,326.435120 580.109070,342.585999 584.489685,359.002747 
	C585.239868,361.814148 586.933044,364.407898 586.500000,367.500000 
"/>
<path fill="none" opacity="1.000000" stroke="#f0eaff" stroke-linecap="round" stroke-linejoin="round" stroke-width="4.000000"
	d="
M579.000000,649.500000 
	C577.883789,656.582214 577.071228,663.729553 574.500000,670.500000 
	C577.434631,682.721741 568.359863,691.080811 564.234375,700.888245 
	C561.156494,708.205261 558.853149,715.816772 555.439270,722.971008 
	C554.630188,724.666565 555.658081,726.000000 555.500000,727.500000 
"/>
<path fill="none" opacity="1.000000" stroke="#f0eaff" stroke-linecap="round" stroke-linejoin="round" stroke-width="2.000000"
	d="
M206.500000,816.500000 
	C202.741531,819.637756 201.948364,824.410339 200.062012,828.528381 
	C193.506317,842.840088 187.211472,857.241089 182.861847,872.460510 
	C180.966934,879.090881 178.982910,885.538696 179.500000,892.500000 
"/>
<path fill="none" opacity="1.000000" stroke="#f0eaff" stroke-linecap="round" stroke-linejoin="round" stroke-width="2.000000"
	d="
M342.500000,776.500000 
	C341.388458,784.992126 339.023560,793.208801 336.997681,801.499451 
	C333.473511,815.921570 329.577545,830.252441 327.362244,844.979248 
	C326.984558,847.490051 326.560242,849.963562 326.500000,852.500000 
"/>
<path fill="none" opacity="1.000000" stroke="#f0eaff" stroke-linecap="round" stroke-linejoin="round" stroke-width="2.000000"
	d="
M176.000000,725.000000 
	C177.544891,727.626709 178.139450,730.440308 178.022263,733.500854 
	C177.368362,750.577454 181.477814,766.989929 184.920517,783.516541 
	C186.100143,789.179321 188.240784,794.646484 188.500000,800.500000 
"/>
<path fill="none" opacity="1.000000" stroke="#f0eaff" stroke-linecap="round" stroke-linejoin="round" stroke-width="2.000000"
	d="
M159.500000,768.500000 
	C159.358597,793.732727 163.104019,818.387695 170.500000,842.500000 
"/>
<path fill="none" opacity="1.000000" stroke="#f0eaff" stroke-linecap="round" stroke-linejoin="round" stroke-width="2.000000"
	d="
M756.999939,691.000000 
	C756.833313,691.833313 756.432800,692.696411 756.534302,693.495605 
	C758.751587,710.947266 754.154846,727.859924 752.457458,744.995789 
	C751.893555,750.689148 750.785095,756.327087 750.049316,762.006409 
	C749.932068,762.911499 749.600159,763.466736 749.000000,764.000000 
"/>
<path fill="none" opacity="1.000000" stroke="#f0eaff" stroke-linecap="round" stroke-linejoin="round" stroke-width="2.000000"
	d="
M565.000000,741.500000 
	C564.368652,748.835022 561.213989,755.192505 556.964294,760.973755 
	C547.034180,774.482849 536.697693,787.714905 529.518250,803.008545 
	C528.059326,806.116272 526.833374,809.333313 525.500000,812.500000 
"/>
<path fill="none" opacity="1.000000" stroke="#f0eaff" stroke-linecap="round" stroke-linejoin="round" stroke-width="2.000000"
	d="
M194.500000,956.500000 
	C194.596283,968.622803 192.416519,980.528320 190.954239,992.494385 
	C189.513687,1004.282593 187.122116,1015.917908 184.500000,1027.500000 
"/>
<path fill="none" opacity="1.000000" stroke="#f0eaff" stroke-linecap="round" stroke-linejoin="round" stroke-width="2.000000"
	d="
M432.500000,827.500000 
	C421.425903,814.744751 407.222198,806.110229 393.016663,797.492188 
	C391.028107,798.281372 391.235199,800.083435 391.554871,801.487488 
	C393.619507,810.556580 394.445190,819.784119 395.615814,828.985291 
	C397.250122,841.831360 396.007050,854.670837 396.500000,867.500000 
"/>
<path fill="none" opacity="1.000000" stroke="#f0eaff" stroke-linecap="round" stroke-linejoin="round" stroke-width="2.000000"
	d="
M555.500000,549.000000 
	C555.500000,557.500000 555.516113,566.000061 555.496155,574.500000 
	C555.466980,586.917969 556.422913,599.252319 558.470764,611.504883 
	C558.687561,612.801941 558.500000,614.166687 558.500000,615.500000 
"/>
<path fill="none" opacity="1.000000" stroke="#f0eaff" stroke-linecap="round" stroke-linejoin="round" stroke-width="5.000000"
	d="
M263.000000,820.500000 
	C259.500000,833.833313 256.009857,847.169312 252.496094,860.498962 
	C250.517578,868.004639 248.464844,875.490967 246.538925,883.009949 
	C246.258484,884.104797 246.500000,885.333313 246.500000,886.500000 
"/>
<path fill="none" opacity="1.000000" stroke="#f0eaff" stroke-linecap="round" stroke-linejoin="round" stroke-width="2.000000"
	d="
M345.500000,814.500000 
	C345.500000,826.000000 345.521881,837.500061 345.493073,849.000000 
	C345.470001,858.206116 346.757263,867.203430 349.455475,876.013611 
	C349.782166,877.080261 349.500000,878.333313 349.500000,879.500000 
"/>
<path fill="none" opacity="1.000000" stroke="#f0eaff" stroke-linecap="round" stroke-linejoin="round" stroke-width="2.000000"
	d="
M269.000000,865.000000 
	C265.777679,868.012573 266.446106,872.361145 265.664185,876.034973 
	C262.596191,890.449524 260.118103,904.991394 257.536987,919.506592 
	C256.952240,922.795166 256.833344,926.166687 256.500000,929.500000 
"/>
<path fill="none" opacity="1.000000" stroke="#f0eaff" stroke-linecap="round" stroke-linejoin="round" stroke-width="2.000000"
	d="
M552.000000,556.500000 
	C553.233521,561.500000 551.989746,566.502869 552.049194,571.499390 
	C552.182739,582.708435 552.577881,593.876221 554.273560,605.034424 
	C555.027649,609.997253 557.168091,615.138733 554.685608,620.584595 
	C553.498840,623.187927 556.154358,625.950867 558.050781,627.951904 
	C564.454468,634.708862 572.105530,640.260986 577.481689,648.012695 
	C578.448364,649.406494 579.768311,648.894348 581.000000,649.000000 
"/>
<path fill="none" opacity="1.000000" stroke="#f0eaff" stroke-linecap="round" stroke-linejoin="round" stroke-width="2.000000"
	d="
M208.000000,1030.500000 
	C204.608337,1038.522827 202.601196,1047.031006 199.068542,1055.030273 
	C192.820694,1069.177734 186.387024,1083.150146 175.500000,1094.500000 
"/>
<path fill="none" opacity="1.000000" stroke="#f0eaff" stroke-linecap="round" stroke-linejoin="round" stroke-width="4.000000"
	d="
M423.500000,527.500000 
	C434.851349,534.466675 447.145599,537.916748 460.500244,537.508301 
	C470.411926,537.205078 478.963593,532.890808 487.500000,528.500000 
"/>
<path fill="none" opacity="1.000000" stroke="#f0eaff" stroke-linecap="round" stroke-linejoin="round" stroke-width="2.000000"
	d="
M713.500000,1018.500000 
	C713.166687,1026.833374 712.475403,1035.170898 712.575745,1043.499146 
	C712.774658,1059.999756 710.512024,1076.558228 713.517273,1092.996826 
	C714.404724,1097.850830 715.500000,1102.666626 716.500000,1107.500000 
"/>
<path fill="none" opacity="1.000000" stroke="#f0eaff" stroke-linecap="round" stroke-linejoin="round" stroke-width="2.000000"
	d="
M322.500000,323.500000 
	C319.294556,334.155151 315.175659,344.542450 313.010620,355.502106 
	C311.305786,364.132019 309.266724,372.707306 308.511719,381.501007 
	C308.405914,382.733276 308.721558,384.110779 307.000000,384.500000 
"/>
<path fill="none" opacity="1.000000" stroke="#f0eaff" stroke-linecap="round" stroke-linejoin="round" stroke-width="2.000000"
	d="
M827.500000,1133.500000 
	C822.875732,1133.971313 819.120056,1136.519043 815.540405,1139.057007 
	C799.419861,1150.486084 787.355469,1165.375366 778.372437,1182.934692 
	C777.239990,1185.148315 776.494934,1187.126587 776.500000,1189.500000 
"/>
<path fill="none" opacity="1.000000" stroke="#f0eaff" stroke-linecap="round" stroke-linejoin="round" stroke-width="2.000000"
	d="
M315.500000,324.500000 
	C313.666687,332.666656 311.620911,340.792755 310.050537,349.009644 
	C307.781189,360.883911 305.881683,372.849365 306.572388,384.995880 
	C306.852753,389.926758 305.037506,394.611786 305.500000,399.500000 
"/>
<path fill="none" opacity="1.000000" stroke="#f0eaff" stroke-linecap="round" stroke-linejoin="round" stroke-width="2.000000"
	d="
M306.000000,914.000000 
	C303.791687,921.745544 302.853607,929.765137 300.718445,937.559814 
	C299.433655,942.250122 300.525116,947.483459 299.598938,952.518188 
	C296.679932,968.386169 297.537872,984.473816 297.500000,1000.500000 
"/>
<path fill="none" opacity="1.000000" stroke="#f0eaff" stroke-linecap="round" stroke-linejoin="round" stroke-width="3.000000"
	d="
M344.000000,551.500000 
	C342.731049,552.544983 342.370483,553.901184 342.489746,555.500793 
	C343.535461,569.528503 344.102661,583.584839 346.336975,597.526123 
	C346.960999,601.419617 348.153229,605.417786 347.500000,609.500000 
"/>
<path fill="none" opacity="1.000000" stroke="#f0eaff" stroke-linecap="round" stroke-linejoin="round" stroke-width="2.000000"
	d="
M245.500000,622.500000 
	C245.378586,628.321716 243.306870,633.801392 242.294373,639.463257 
	C240.658722,648.609619 239.680145,657.774841 239.026215,667.001831 
	C238.708038,671.491150 238.666672,676.000000 238.500000,680.500000 
"/>
<path fill="none" opacity="1.000000" stroke="#f0eaff" stroke-linecap="round" stroke-linejoin="round" stroke-width="3.000000"
	d="
M730.000000,1117.000000 
	C728.765625,1126.681396 731.387390,1136.039917 732.607178,1145.486206 
	C733.777588,1154.550293 736.296753,1163.446045 737.352356,1172.517212 
	C738.186340,1179.683716 739.223999,1186.826660 740.021118,1193.997681 
	C740.131470,1194.990356 739.136292,1196.784912 741.500000,1196.500000 
"/>
<path fill="none" opacity="1.000000" stroke="#f0eaff" stroke-linecap="round" stroke-linejoin="round" stroke-width="4.000000"
	d="
M547.500000,558.500000 
	C548.293762,565.427979 547.285217,572.231628 545.907837,578.981201 
	C545.776489,579.624939 545.512756,580.316895 545.513123,581.000000 
	C545.518616,592.061279 545.155579,603.156433 548.013062,613.996582 
	C548.872620,617.257385 550.793274,619.700989 554.000000,621.000000 
"/>
<path fill="none" opacity="1.000000" stroke="#f0eaff" stroke-linecap="round" stroke-linejoin="round" stroke-width="2.000000"
	d="
M371.500000,249.500000 
	C356.709534,266.437836 345.568359,285.552490 337.500000,306.500000 
"/>
<path fill="none" opacity="1.000000" stroke="#f0eaff" stroke-linecap="round" stroke-linejoin="round" stroke-width="2.000000"
	d="
M586.500000,448.000000 
	C589.994873,449.959625 588.611206,453.352417 588.391724,455.990997 
	C587.294922,469.177307 585.983276,482.351715 584.375000,495.484711 
	C584.048645,498.150055 583.454834,500.786011 583.500000,503.500000 
"/>
<path fill="none" opacity="1.000000" stroke="#f0eaff" stroke-linecap="round" stroke-linejoin="round" stroke-width="5.000000"
	d="
M584.500000,399.500000 
	C582.503479,401.428192 582.426575,401.434387 582.512329,402.499023 
	C583.156494,410.500824 583.280212,418.601166 584.717407,426.460236 
	C585.518372,430.840515 585.815002,435.122986 586.022949,439.498901 
	C586.432922,448.127319 583.298767,456.161011 581.975708,464.496155 
	C580.755981,472.180847 579.355286,479.837250 577.993713,487.498871 
	C576.689575,494.837402 575.396423,502.178864 573.979370,509.496002 
	C572.910583,515.014832 572.428223,520.661560 570.500000,526.000000 
"/>
<path fill="none" opacity="1.000000" stroke="#f0eaff" stroke-linecap="round" stroke-linejoin="round" stroke-width="2.000000"
	d="
M292.500000,1118.500000 
	C298.278046,1136.080200 298.775330,1154.247192 298.500000,1172.500000 
"/>
<path fill="none" opacity="1.000000" stroke="#f0eaff" stroke-linecap="round" stroke-linejoin="round" stroke-width="2.000000"
	d="
M355.500000,650.500000 
	C356.500000,660.500000 357.990692,670.482666 358.344604,680.505493 
	C358.627350,688.512512 359.117188,696.502075 359.500000,704.500000 
"/>
<path fill="none" opacity="1.000000" stroke="#f0eaff" stroke-linecap="round" stroke-linejoin="round" stroke-width="2.000000"
	d="
M207.500000,1004.500000 
	C206.032791,1014.325989 201.791672,1023.268494 198.445190,1032.480103 
	C195.182144,1041.462036 190.917892,1050.026245 186.500000,1058.500000 
"/>
<path fill="none" opacity="1.000000" stroke="#f0eaff" stroke-linecap="round" stroke-linejoin="round" stroke-width="2.000000"
	d="
M694.000000,956.500000 
	C692.226624,961.981506 695.121338,966.890442 696.094299,971.981995 
	C698.538818,984.774780 702.185547,997.353943 702.500000,1010.500000 
"/>
<path fill="none" opacity="1.000000" stroke="#f0eaff" stroke-linecap="round" stroke-linejoin="round" stroke-width="2.000000"
	d="
M347.000000,556.500000 
	C344.904602,559.000000 346.861969,561.490356 346.954498,564.001648 
	C347.344879,574.595947 349.022308,585.038635 350.550385,595.492615 
	C351.280579,600.487915 352.572784,605.401428 352.500000,610.500000 
"/>
<path fill="none" opacity="1.000000" stroke="#f0eaff" stroke-linecap="round" stroke-linejoin="round" stroke-width="2.000000"
	d="
M210.500000,1018.500000 
	C208.476059,1026.893555 210.060913,1035.546509 208.572418,1044.012695 
	C207.253235,1051.515991 206.046127,1059.042480 204.754196,1066.543823 
	C203.668793,1072.845947 202.702118,1079.198608 201.500000,1085.500000 
"/>
<path fill="none" opacity="1.000000" stroke="#f0eaff" stroke-linecap="round" stroke-linejoin="round" stroke-width="2.000000"
	d="
M460.500000,218.500000 
	C446.421906,213.980179 433.058197,216.951035 420.019928,222.546432 
	C416.057953,224.246704 412.333344,226.500000 408.500000,228.500000 
"/>
<path fill="none" opacity="1.000000" stroke="#f0eaff" stroke-linecap="round" stroke-linejoin="round" stroke-width="2.000000"
	d="
M738.500000,770.500000 
	C739.845459,778.732239 742.346436,786.703064 743.649536,794.976440 
	C745.038574,803.795166 746.123840,812.596069 746.500000,821.500000 
"/>
<path fill="none" opacity="1.000000" stroke="#f0eaff" stroke-linecap="round" stroke-linejoin="round" stroke-width="2.000000"
	d="
M581.500000,358.500000 
	C582.038025,365.731140 584.011169,372.730927 584.748047,379.974762 
	C585.391296,386.297607 586.914307,392.623108 587.388733,399.008270 
	C587.622742,402.157501 589.870850,405.226105 588.000000,408.500000 
"/>
<path fill="none" opacity="1.000000" stroke="#f0eaff" stroke-linecap="round" stroke-linejoin="round" stroke-width="2.000000"
	d="
M217.000000,1022.500000 
	C214.092575,1038.464355 211.672836,1054.533936 206.555573,1070.018311 
	C206.232285,1070.996704 206.169373,1071.835327 205.000000,1072.000000 
"/>
<path fill="none" opacity="1.000000" stroke="#f0eaff" stroke-linecap="round" stroke-linejoin="round" stroke-width="3.000000"
	d="
M519.500000,233.500000 
	C511.564209,226.166519 503.364624,219.111618 493.465363,214.575562 
	C486.553711,211.408493 479.189331,209.924133 471.495087,211.475586 
	C470.818054,211.612106 470.452545,211.785889 470.500000,212.500000 
"/>
<path fill="none" opacity="1.000000" stroke="#f0eaff" stroke-linecap="round" stroke-linejoin="round" stroke-width="2.000000"
	d="
M270.000000,555.500000 
	C269.166656,556.000000 267.783234,556.337708 267.580811,557.023865 
	C263.066986,572.321655 255.790558,586.629517 251.516312,602.004517 
	C251.387299,602.468689 251.500000,603.000000 251.500000,603.500000 
"/>
<path fill="none" opacity="1.000000" stroke="#f0eaff" stroke-linecap="round" stroke-linejoin="round" stroke-width="2.000000"
	d="
M349.500000,686.500000 
	C349.500000,692.833313 349.364105,699.170288 349.531097,705.499207 
	C349.796875,715.572205 347.735992,725.471313 347.500000,735.500000 
"/>
<path fill="none" opacity="1.000000" stroke="#f0eaff" stroke-linecap="round" stroke-linejoin="round" stroke-width="2.000000"
	d="
M279.500000,1022.500000 
	C280.313873,1038.635376 278.473724,1054.375488 272.500000,1069.500000 
"/>
<path fill="none" opacity="1.000000" stroke="#f0eaff" stroke-linecap="round" stroke-linejoin="round" stroke-width="2.000000"
	d="
M660.000000,888.500000 
	C659.697083,889.306091 659.027283,889.704895 659.392029,891.029724 
	C663.319092,905.292114 662.701843,919.917114 662.500000,934.500000 
"/>
<path fill="none" opacity="1.000000" stroke="#f0eaff" stroke-linecap="round" stroke-linejoin="round" stroke-width="2.000000"
	d="
M633.499939,858.500000 
	C634.499939,866.666687 635.836609,874.810242 636.398193,883.006958 
	C636.886902,890.140198 636.500000,897.333313 636.500000,904.500000 
"/>
<path fill="none" opacity="1.000000" stroke="#f0eaff" stroke-linecap="round" stroke-linejoin="round" stroke-width="2.000000"
	d="
M367.000000,662.000000 
	C369.377289,676.607483 371.781586,691.206177 377.462250,705.015564 
	C377.755432,705.728210 377.500000,706.666687 377.500000,707.500000 
"/>
<path fill="none" opacity="1.000000" stroke="#f0eaff" stroke-linecap="round" stroke-linejoin="round" stroke-width="2.000000"
	d="
M189.500000,1035.500000 
	C184.675659,1049.491943 176.341965,1061.501465 167.979980,1073.486084 
	C166.284698,1075.915771 164.333328,1078.166626 162.500000,1080.500000 
"/>
<path fill="none" opacity="1.000000" stroke="#f0eaff" stroke-linecap="round" stroke-linejoin="round" stroke-width="2.000000"
	d="
M353.000000,573.500000 
	C350.244354,575.863892 351.839478,578.990784 352.152405,581.480835 
	C353.456848,591.859680 355.218353,602.187683 357.097443,612.482239 
	C357.471558,614.531921 357.266388,616.505554 357.500000,618.500000 
"/>
<path fill="none" opacity="1.000000" stroke="#f0eaff" stroke-linecap="round" stroke-linejoin="round" stroke-width="2.000000"
	d="
M223.499985,964.500000 
	C222.499985,970.166687 221.605209,975.854370 220.477432,981.495483 
	C218.327728,992.248352 218.348267,1003.107422 218.472122,1014.000305 
	C218.669601,1031.368042 222.194992,1047.927856 230.058090,1063.470581 
	C230.428085,1064.202148 230.399307,1064.816895 230.500000,1065.500000 
"/>
<path fill="none" opacity="1.000000" stroke="#f0eaff" stroke-linecap="round" stroke-linejoin="round" stroke-width="2.000000"
	d="
M711.000000,1046.500000 
	C708.910583,1056.017578 706.833130,1065.539673 704.700195,1075.044922 
	C703.666870,1079.649780 702.821960,1084.596924 703.500000,1089.500000 
"/>
<path fill="none" opacity="1.000000" stroke="#f0eaff" stroke-linecap="round" stroke-linejoin="round" stroke-width="2.000000"
	d="
M129.500000,845.500000 
	C131.070602,859.758118 133.875427,873.717896 139.477310,887.009583 
	C139.656250,887.434143 139.500000,888.000000 139.500000,888.500000 
"/>
<path fill="none" opacity="1.000000" stroke="#f0eaff" stroke-linecap="round" stroke-linejoin="round" stroke-width="2.000000"
	d="
M720.500000,1063.500000 
	C719.067688,1077.473877 719.556519,1091.493408 719.500000,1105.500000 
"/>
<path fill="none" opacity="1.000000" stroke="#f0eaff" stroke-linecap="round" stroke-linejoin="round" stroke-width="2.000000"
	d="
M678.500000,645.500000 
	C681.734680,654.200684 686.394531,662.222961 690.571228,670.463928 
	C693.537476,676.316650 697.166626,681.833374 700.499939,687.500000 
"/>
<path fill="none" opacity="1.000000" stroke="#f0eaff" stroke-linecap="round" stroke-linejoin="round" stroke-width="2.000000"
	d="
M828.500000,1147.500000 
	C827.625916,1151.653076 826.255859,1155.633789 824.516602,1159.507446 
	C822.660278,1163.641846 821.057373,1167.779053 820.900574,1172.496704 
	C820.721069,1177.896851 818.303101,1182.104858 812.506348,1183.526001 
	C811.434082,1183.788940 810.199341,1183.898682 809.500000,1185.000000 
"/>
<path fill="none" opacity="1.000000" stroke="#f0eaff" stroke-linecap="round" stroke-linejoin="round" stroke-width="3.000000"
	d="
M548.000000,616.500000 
	C546.189270,617.773438 546.257202,619.728699 546.541748,621.493286 
	C548.356750,632.747681 551.115601,643.777161 555.085632,654.468201 
	C555.490723,655.559204 555.254944,656.513062 555.500000,657.500000 
"/>
<path fill="none" opacity="1.000000" stroke="#f0eaff" stroke-linecap="round" stroke-linejoin="round" stroke-width="2.000000"
	d="
M540.000000,384.000000 
	C525.475891,378.292236 511.891052,379.500763 499.500000,389.500000 
"/>
<path fill="none" opacity="1.000000" stroke="#f0eaff" stroke-linecap="round" stroke-linejoin="round" stroke-width="2.000000"
	d="
M548.000000,578.500000 
	C548.333374,579.333313 548.977295,580.175659 548.953430,580.998657 
	C548.587830,593.617615 551.253418,605.812622 554.000000,618.000000 
"/>
<path fill="none" opacity="1.000000" stroke="#f0eaff" stroke-linecap="round" stroke-linejoin="round" stroke-width="2.000000"
	d="
M426.500000,867.500000 
	C427.833313,872.500000 429.331604,877.462952 430.465210,882.507812 
	C432.734650,892.607422 439.744049,897.766113 449.010651,900.463440 
	C458.293488,903.165527 467.808929,904.528137 477.500000,904.500000 
"/>
<path fill="none" opacity="1.000000" stroke="#f0eaff" stroke-linecap="round" stroke-linejoin="round" stroke-width="2.000000"
	d="
M273.000000,782.500000 
	C268.734833,793.217651 266.567047,804.569824 263.091736,815.529114 
	C262.687744,816.802979 262.379303,818.609619 263.512878,819.989441 
	C263.580017,820.071167 263.868225,820.059265 263.992004,819.986450 
	C264.188599,819.870605 264.333374,819.666687 264.500031,819.500061 
"/>
<path fill="none" opacity="1.000000" stroke="#f0eaff" stroke-linecap="round" stroke-linejoin="round" stroke-width="2.000000"
	d="
M273.500000,781.500000 
	C275.742371,782.575745 274.992310,784.227356 274.530334,786.007874 
	C271.693726,796.939697 268.708130,807.824951 265.000000,818.500000 
"/>
<path fill="none" opacity="1.000000" stroke="#f0eaff" stroke-linecap="round" stroke-linejoin="round" stroke-width="2.000000"
	d="
M367.000000,708.000000 
	C369.833313,718.166687 372.620087,728.346741 375.541321,738.488098 
	C376.092529,740.401611 375.643829,742.858887 378.000000,744.000000 
"/>
<path fill="none" opacity="1.000000" stroke="#f0eaff" stroke-linecap="round" stroke-linejoin="round" stroke-width="2.000000"
	d="
M739.500000,1151.500000 
	C750.148315,1157.518311 757.350403,1166.987915 764.487793,1176.509155 
	C766.567139,1179.283081 768.790100,1182.015381 770.379395,1185.062866 
	C771.191711,1186.620483 773.921204,1189.409912 769.500000,1190.500000 
"/>
<path fill="none" opacity="1.000000" stroke="#f0eaff" stroke-linecap="round" stroke-linejoin="round" stroke-width="2.000000"
	d="
M246.500000,839.500000 
	C245.679062,849.358704 243.178238,858.898499 241.004028,868.500916 
	C240.477097,870.828125 240.000015,873.166687 239.500015,875.500000 
"/>
<path fill="none" opacity="1.000000" stroke="#f0eaff" stroke-linecap="round" stroke-linejoin="round" stroke-width="2.000000"
	d="
M692.500000,994.500000 
	C692.576599,1004.822083 695.721558,1014.586609 698.099854,1024.475952 
	C698.435547,1025.871582 698.231812,1027.179321 698.500000,1028.500000 
"/>
<path fill="none" opacity="1.000000" stroke="#f0eaff" stroke-linecap="round" stroke-linejoin="round" stroke-width="2.000000"
	d="
M173.500000,807.500000 
	C174.418625,819.384277 176.146255,831.054443 182.500000,841.500000 
"/>
<path fill="none" opacity="1.000000" stroke="#f0eaff" stroke-linecap="round" stroke-linejoin="round" stroke-width="2.000000"
	d="
M447.500000,906.500000 
	C448.857574,917.458130 449.983673,928.430298 449.500000,939.500000 
"/>
<path fill="none" opacity="1.000000" stroke="#f0eaff" stroke-linecap="round" stroke-linejoin="round" stroke-width="2.000000"
	d="
M264.000000,860.500000 
	C266.400726,864.415222 263.689911,867.931152 262.897278,871.477051 
	C261.249603,878.847778 258.172943,885.876587 257.500000,893.500000 
"/>
<path fill="none" opacity="1.000000" stroke="#f0eaff" stroke-linecap="round" stroke-linejoin="round" stroke-width="2.000000"
	d="
M489.500000,849.500000 
	C494.122345,853.900452 494.592590,855.731506 491.978912,860.488403 
	C490.132782,863.848389 487.459320,865.133057 483.481995,864.067200 
	C478.599121,862.758667 477.186523,861.134033 476.500000,854.500000 
"/>
<path fill="none" opacity="1.000000" stroke="#f0eaff" stroke-linecap="round" stroke-linejoin="round" stroke-width="2.000000"
	d="
M426.500000,448.500000 
	C423.697968,452.579498 420.875702,456.837891 421.585358,461.988251 
	C422.668427,469.848572 428.498322,472.948547 435.500000,474.500000 
"/>
<path fill="none" opacity="1.000000" stroke="#f0eaff" stroke-linecap="round" stroke-linejoin="round" stroke-width="2.000000"
	d="
M306.000000,400.500000 
	C306.959595,403.889648 306.571716,407.164215 305.546082,410.514099 
	C304.197174,414.919800 304.934509,419.525513 305.155182,423.992340 
	C305.278076,426.480316 305.299194,429.002289 305.500000,431.500000 
"/>
<path fill="none" opacity="1.000000" stroke="#f0eaff" stroke-linecap="round" stroke-linejoin="round" stroke-width="2.000000"
	d="
M491.500000,453.500000 
	C497.273224,464.000214 496.047119,474.127502 479.500000,478.500000 
"/>
<path fill="none" opacity="1.000000" stroke="#f0eaff" stroke-linecap="round" stroke-linejoin="round" stroke-width="2.000000"
	d="
M534.500000,232.500000 
	C543.482544,241.388092 551.229614,251.202789 557.000000,262.500000 
"/>
<path fill="none" opacity="1.000000" stroke="#f0eaff" stroke-linecap="round" stroke-linejoin="round" stroke-width="3.000000"
	d="
M411.000000,381.000000 
	C411.000000,381.666656 410.962860,382.335724 411.005554,382.999634 
	C411.754272,394.639008 407.316559,397.198425 396.032196,394.845612 
	C390.463074,393.684448 384.455078,393.896179 379.388031,390.151489 
	C377.434875,388.708069 375.364441,387.573090 374.000000,385.500000 
"/>
<path fill="none" opacity="1.000000" stroke="#f0eaff" stroke-linecap="round" stroke-linejoin="round" stroke-width="2.000000"
	d="
M263.500000,1020.500000 
	C264.770386,1030.459717 266.139526,1040.412964 265.500000,1050.500000 
"/>
<path fill="none" opacity="1.000000" stroke="#f0eaff" stroke-linecap="round" stroke-linejoin="round" stroke-width="2.000000"
	d="
M683.000000,930.500000 
	C680.999817,934.944458 684.510620,938.462036 685.106201,942.484253 
	C685.999634,948.518433 688.466492,954.279663 688.500000,960.500000 
"/>
<path fill="none" opacity="1.000000" stroke="#f0eaff" stroke-linecap="round" stroke-linejoin="round" stroke-width="2.000000"
	d="
M460.500000,196.500000 
	C451.768616,193.465240 442.934357,193.268341 433.993652,195.474304 
	C433.208130,195.668121 432.333344,195.500000 431.500000,195.500000 
"/>
<path fill="none" opacity="1.000000" stroke="#f0eaff" stroke-linecap="round" stroke-linejoin="round" stroke-width="2.000000"
	d="
M348.500000,619.500000 
	C349.166656,629.166687 349.833344,638.833313 350.500000,648.500000 
"/>
<path fill="none" opacity="1.000000" stroke="#f0eaff" stroke-linecap="round" stroke-linejoin="round" stroke-width="3.000000"
	d="
M392.500000,797.499939 
	C383.500000,793.499939 374.516266,789.462158 365.471222,785.566772 
	C364.688263,785.229553 363.500000,785.833313 362.500000,786.000000 
"/>
<path fill="none" opacity="1.000000" stroke="#f0eaff" stroke-linecap="round" stroke-linejoin="round" stroke-width="2.000000"
	d="
M175.500000,917.500000 
	C175.500000,924.833313 175.518936,932.166748 175.488266,939.499939 
	C175.479294,941.647583 175.352264,943.777466 178.500000,943.500000 
"/>
<path fill="none" opacity="1.000000" stroke="#f0eaff" stroke-linecap="round" stroke-linejoin="round" stroke-width="2.000000"
	d="
M699.000000,728.500000 
	C703.397034,737.882996 708.766113,746.797302 712.500000,756.500000 
"/>
<path fill="none" opacity="1.000000" stroke="#f0eaff" stroke-linecap="round" stroke-linejoin="round" stroke-width="3.000000"
	d="
M541.500000,346.500031 
	C534.000000,347.166687 526.505249,347.901489 518.998657,348.482666 
	C509.715607,349.201385 502.098206,352.934143 496.500000,360.500000 
"/>
<path fill="none" opacity="1.000000" stroke="#f0eaff" stroke-linecap="round" stroke-linejoin="round" stroke-width="2.000000"
	d="
M354.500000,894.500000 
	C355.666656,901.166687 356.655243,907.872070 358.094147,914.479492 
	C358.615417,916.873230 358.216156,919.175049 358.500000,921.500000 
"/>
<path fill="none" opacity="1.000000" stroke="#f0eaff" stroke-linecap="round" stroke-linejoin="round" stroke-width="2.000000"
	d="
M497.500000,193.500000 
	C493.795502,193.582764 490.267059,192.332626 486.498810,192.366211 
	C481.349365,192.412109 476.391937,193.022934 471.500000,194.500000 
"/>
<path fill="none" opacity="1.000000" stroke="#f0eaff" stroke-linecap="round" stroke-linejoin="round" stroke-width="2.000000"
	d="
M420.500000,376.500000 
	C413.356659,371.170319 404.897156,370.687286 396.496368,370.047729 
	C396.024475,370.011810 395.500000,370.666656 395.000000,371.000000 
"/>
<path fill="none" opacity="1.000000" stroke="#f0eaff" stroke-linecap="round" stroke-linejoin="round" stroke-width="2.000000"
	d="
M380.500000,715.500000 
	C382.000000,722.166687 383.374542,728.866089 385.100677,735.473694 
	C385.467102,736.876282 385.231781,738.179382 385.500000,739.500000 
"/>
<path fill="none" opacity="1.000000" stroke="#f0eaff" stroke-linecap="round" stroke-linejoin="round" stroke-width="2.000000"
	d="
M625.000000,821.500000 
	C622.999817,825.944458 626.556213,829.452576 627.126221,833.482178 
	C627.600891,836.838318 629.224121,840.027283 629.500000,843.500000 
"/>
<path fill="none" opacity="1.000000" stroke="#f0eaff" stroke-linecap="round" stroke-linejoin="round" stroke-width="2.000000"
	d="
M444.500000,472.000000 
	C445.833313,473.666687 447.301422,475.244019 448.476044,477.015869 
	C452.938873,483.747986 457.765594,484.835083 464.500000,480.500000 
"/>
<path fill="none" opacity="1.000000" stroke="#f0eaff" stroke-linecap="round" stroke-linejoin="round" stroke-width="2.000000"
	d="
M513.500000,390.500000 
	C511.363892,403.687897 513.637878,406.593018 528.000061,406.587708 
	C535.458008,406.584961 542.544434,406.105103 548.500000,401.000000 
"/>
<path fill="none" opacity="1.000000" stroke="#f0eaff" stroke-linecap="round" stroke-linejoin="round" stroke-width="3.000000"
	d="
M448.500000,385.500000 
	C448.542664,392.833344 449.834808,400.166656 448.500000,407.500000 
"/>
<path fill="none" opacity="1.000000" stroke="#f0eaff" stroke-linecap="round" stroke-linejoin="round" stroke-width="2.000000"
	d="
M756.500000,1189.500000 
	C753.264893,1189.433472 750.341980,1187.835815 746.998230,1187.889038 
	C743.465088,1187.945190 743.063049,1184.530029 741.981262,1182.008057 
	C740.894226,1179.474121 741.567139,1176.113159 738.500000,1174.500000 
"/>
<path fill="none" opacity="1.000000" stroke="#f0eaff" stroke-linecap="round" stroke-linejoin="round" stroke-width="2.000000"
	d="
M495.500000,197.500000 
	C488.549774,196.121155 481.513702,196.545578 474.500000,196.500000 
"/>
<path fill="none" opacity="1.000000" stroke="#f0eaff" stroke-linecap="round" stroke-linejoin="round" stroke-width="2.000000"
	d="
M463.500000,193.500000 
	C457.117035,188.927170 449.785553,189.334167 442.500000,189.500000 
"/>
<path fill="none" opacity="1.000000" stroke="#f0eaff" stroke-linecap="round" stroke-linejoin="round" stroke-width="2.000000"
	d="
M515.500000,769.500000 
	C510.183594,774.225098 509.415710,779.600830 513.500061,783.499939 
	C516.002075,785.888489 520.493774,786.113159 523.499939,783.999939 
	C526.744934,781.719055 528.237000,777.730469 526.984802,774.505920 
	C526.581787,773.468201 526.000000,772.500000 525.500000,771.500000 
"/>
<path fill="none" opacity="1.000000" stroke="#f0eaff" stroke-linecap="round" stroke-linejoin="round" stroke-width="3.000000"
	d="
M369.500000,380.000000 
	C376.564240,380.945038 382.345093,376.340302 388.996368,375.472168 
	C390.022400,375.338226 391.101959,374.373993 391.984497,374.569885 
	C402.684204,376.945160 413.301453,379.496429 422.550079,385.927979 
	C425.428986,387.930023 424.948853,392.240906 428.500000,393.500000 
"/>
<path fill="none" opacity="1.000000" stroke="#f0eaff" stroke-linecap="round" stroke-linejoin="round" stroke-width="3.000000"
	d="
M363.000000,743.000000 
	C367.504547,750.250061 373.342651,756.088196 381.000000,760.000000 
"/>
<path fill="none" opacity="1.000000" stroke="#f0eaff" stroke-linecap="round" stroke-linejoin="round" stroke-width="2.000000"
	d="
M460.500000,203.500000 
	C454.451385,200.128632 448.080963,199.814316 441.500000,201.500000 
"/>
<path fill="none" opacity="1.000000" stroke="#f0eaff" stroke-linecap="round" stroke-linejoin="round" stroke-width="2.000000"
	d="
M459.500000,210.500000 
	C453.394897,208.054474 447.029663,207.256577 440.500000,207.500000 
"/>
<path fill="none" opacity="1.000000" stroke="#f0eaff" stroke-linecap="round" stroke-linejoin="round" stroke-width="2.000000"
	d="
M483.500000,939.500000 
	C477.557770,940.872986 471.516052,940.455383 465.500000,940.500000 
"/>
<path fill="none" opacity="1.000000" stroke="#f0eaff" stroke-linecap="round" stroke-linejoin="round" stroke-width="2.000000"
	d="
M562.500000,355.500000 
	C568.611206,359.569366 571.812439,366.184967 576.500000,371.500000 
"/>
<path fill="none" opacity="1.000000" stroke="#f0eaff" stroke-linecap="round" stroke-linejoin="round" stroke-width="2.000000"
	d="
M436.500000,855.000000 
	C440.581055,860.186768 444.340759,865.520386 444.500000,872.500000 
"/>
<path fill="none" opacity="1.000000" stroke="#f0eaff" stroke-linecap="round" stroke-linejoin="round" stroke-width="3.000000"
	d="
M375.500000,344.500000 
	C381.448151,345.633270 387.366882,346.632935 393.498047,346.694336 
	C396.342773,346.722809 399.207031,348.745331 401.989746,350.022369 
	C405.454071,351.612152 408.734222,353.620117 412.500000,354.500000 
"/>
<path fill="none" opacity="1.000000" stroke="#f0eaff" stroke-linecap="round" stroke-linejoin="round" stroke-width="2.000000"
	d="
M551.500000,354.500031 
	C545.833313,355.166687 540.166687,355.833344 534.500000,356.500031 
"/>
<path fill="none" opacity="1.000000" stroke="#f0eaff" stroke-linecap="round" stroke-linejoin="round" stroke-width="3.000000"
	d="
M355.500000,782.500000 
	C363.754333,786.056091 367.114777,794.235413 372.484894,800.512939 
	C373.260559,801.419678 373.833344,802.500000 374.500000,803.500000 
"/>
<path fill="none" opacity="1.000000" stroke="#f0eaff" stroke-linecap="round" stroke-linejoin="round" stroke-width="6.000000"
	d="
M401.500000,380.500000 
	C397.126709,382.497498 396.304718,384.470184 399.000000,386.500000 
	C401.331665,388.256012 403.139374,387.269989 404.500000,383.500000 
"/>
<path fill="none" opacity="1.000000" stroke="#f0eaff" stroke-linecap="round" stroke-linejoin="round" stroke-width="2.000000"
	d="
M425.000000,393.000000 
	C419.590851,394.416290 414.125671,395.370026 408.500000,395.000000 
"/>
<path fill="none" opacity="1.000000" stroke="#f0eaff" stroke-linecap="round" stroke-linejoin="round" stroke-width="3.000000"
	d="
M387.500000,376.500000 
	C388.217316,378.963287 388.746796,381.287506 388.138916,384.030792 
	C387.446777,387.154480 389.061279,390.168152 390.500000,393.000000 
"/>
<path fill="none" opacity="1.000000" stroke="#f0eaff" stroke-linecap="round" stroke-linejoin="round" stroke-width="2.000000"
	d="
M805.500000,1168.500000 
	C806.575867,1163.984863 807.626160,1159.472656 804.144897,1155.522095 
	C802.676208,1155.283447 801.917053,1157.043091 800.500000,1156.500000 
"/>
<path fill="none" opacity="1.000000" stroke="#f0eaff" stroke-linecap="round" stroke-linejoin="round" stroke-width="4.000000"
	d="
M550.500000,396.000000 
	C551.361511,394.788025 553.427856,396.387268 554.104797,394.125488 
	C551.286865,389.744904 547.627686,387.827332 541.960571,389.353546 
	C539.160645,390.107605 536.205811,389.990143 532.914368,388.722260 
	C521.781494,384.433838 502.622955,390.964264 497.351990,399.407623 
	C496.889526,400.148376 496.685577,400.759460 496.500000,401.500000 
"/>
<path fill="none" opacity="1.000000" stroke="#f0eaff" stroke-linecap="round" stroke-linejoin="round" stroke-width="3.000000"
	d="
M482.500000,471.000000 
	C480.730103,471.682190 478.930054,471.979919 477.002533,472.060699 
	C473.288971,472.216370 469.768738,473.104401 467.500000,476.500000 
"/>
<path fill="none" opacity="1.000000" stroke="#f0eaff" stroke-linecap="round" stroke-linejoin="round" stroke-width="3.000000"
	d="
M535.500000,390.500000 
	C535.333374,391.500000 534.796448,392.612793 535.061096,393.481384 
	C536.582336,398.474060 535.025391,402.493774 531.500000,406.000000 
"/>
<path fill="none" opacity="1.000000" stroke="#f0eaff" stroke-linecap="round" stroke-linejoin="round" stroke-width="2.000000"
	d="
M251.500000,953.500000 
	C251.959717,958.058716 249.789749,962.417114 250.430664,967.009705 
	C250.466766,967.268188 249.499985,967.666626 248.999985,968.000000 
"/>
<path fill="none" opacity="1.000000" stroke="#f0eaff" stroke-linecap="round" stroke-linejoin="round" stroke-width="2.000000"
	d="
M495.500000,868.500000 
	C495.157349,873.764160 492.664886,878.455078 491.500000,883.500000 
"/>
<path fill="none" opacity="1.000000" stroke="#f0eaff" stroke-linecap="round" stroke-linejoin="round" stroke-width="3.000000"
	d="
M189.500000,859.500000 
	C188.941483,863.704224 190.668213,867.557312 191.646042,871.463440 
	C192.156662,873.503174 192.453796,875.452148 192.500000,877.500000 
"/>
<path fill="none" opacity="1.000000" stroke="#f0eaff" stroke-linecap="round" stroke-linejoin="round" stroke-width="2.000000"
	d="
M451.500000,854.500000 
	C453.833313,859.166687 456.166656,863.833313 458.500000,868.500000 
"/>
<path fill="none" opacity="1.000000" stroke="#f0eaff" stroke-linecap="round" stroke-linejoin="round" stroke-width="2.000000"
	d="
M533.500000,351.500000 
	C528.838318,352.445099 524.980591,355.340088 521.689697,358.217010 
	C518.508118,360.998352 515.481018,362.368896 511.501892,362.543457 
	C510.156525,362.602448 508.833344,363.166656 507.500000,363.500000 
"/>
<path fill="none" opacity="1.000000" stroke="#f0eaff" stroke-linecap="round" stroke-linejoin="round" stroke-width="2.000000"
	d="
M815.500000,1196.500000 
	C814.211060,1189.188110 812.074341,1186.576660 806.500000,1185.500000 
"/>
<path fill="none" opacity="1.000000" stroke="#f0eaff" stroke-linecap="round" stroke-linejoin="round" stroke-width="2.000000"
	d="
M348.500000,610.000000 
	C349.979156,614.379639 350.548584,618.894043 350.500000,623.500000 
"/>
<path fill="none" opacity="1.000000" stroke="#f0eaff" stroke-linecap="round" stroke-linejoin="round" stroke-width="3.000000"
	d="
M387.750000,774.000000 
	C386.504425,778.653931 389.096802,782.952454 389.000000,787.500000 
"/>
<path fill="none" opacity="1.000000" stroke="#f0eaff" stroke-linecap="round" stroke-linejoin="round" stroke-width="3.000000"
	d="
M431.000000,351.500000 
	C430.555695,350.472168 430.667755,349.050873 429.489349,348.523804 
	C421.089264,344.766724 412.938080,340.271454 403.500000,339.500000 
"/>
<path fill="none" opacity="1.000000" stroke="#f0eaff" stroke-linecap="round" stroke-linejoin="round" stroke-width="2.000000"
	d="
M513.500000,404.000000 
	C508.988312,403.772949 504.757507,402.328583 500.500000,401.000000 
"/>
<path fill="none" opacity="1.000000" stroke="#f0eaff" stroke-linecap="round" stroke-linejoin="round" stroke-width="2.000000"
	d="
M462.500000,505.500000 
	C455.208435,508.665985 449.036713,504.366455 442.500000,502.500000 
"/>
<path fill="none" opacity="1.000000" stroke="#f0eaff" stroke-linecap="round" stroke-linejoin="round" stroke-width="2.000000"
	d="
M768.500000,1169.500000 
	C769.114990,1173.985229 770.832520,1178.073608 773.000000,1182.000000 
"/>
<path fill="none" opacity="1.000000" stroke="#f0eaff" stroke-linecap="round" stroke-linejoin="round" stroke-width="4.000000"
	d="
M585.000000,400.500000 
	C586.166626,406.500000 587.333313,412.500000 588.500000,418.500000 
"/>
<path fill="none" opacity="1.000000" stroke="#f0eaff" stroke-linecap="round" stroke-linejoin="round" stroke-width="4.000000"
	d="
M443.500000,471.500000 
	C439.876099,468.930695 436.272614,466.312408 431.500000,466.500000 
"/>
<path fill="none" opacity="1.000000" stroke="#f0eaff" stroke-linecap="round" stroke-linejoin="round" stroke-width="2.000000"
	d="
M778.500000,1170.500000 
	C775.781677,1173.861084 776.989502,1178.417114 775.000000,1182.000000 
"/>
<path fill="none" opacity="1.000000" stroke="#f0eaff" stroke-linecap="round" stroke-linejoin="round" stroke-width="2.000000"
	d="
M746.000000,1162.999878 
	C745.149963,1163.287109 744.299927,1163.574341 743.224976,1163.937622 
	C745.497070,1167.573242 744.060425,1172.042236 746.500000,1175.500000 
"/>
<path fill="none" opacity="1.000000" stroke="#f0eaff" stroke-linecap="round" stroke-linejoin="round" stroke-width="2.000000"
	d="
M413.500000,344.500000 
	C415.999054,348.576538 420.783478,350.783203 422.500000,355.500000 
"/>
<path fill="none" opacity="1.000000" stroke="#f0eaff" stroke-linecap="round" stroke-linejoin="round" stroke-width="5.000000"
	d="
M542.500000,390.000000 
	C542.537109,393.744629 545.724670,395.072083 548.028503,396.965302 
	C552.608276,400.728790 552.264465,402.979034 546.500000,405.500000 
"/>
<path fill="none" opacity="1.000000" stroke="#f0eaff" stroke-linecap="round" stroke-linejoin="round" stroke-width="2.000000"
	d="
M372.500000,343.500000 
	C366.674896,342.290497 362.369781,345.488983 358.000000,348.500000 
"/>
<path fill="none" opacity="1.000000" stroke="#f0eaff" stroke-linecap="round" stroke-linejoin="round" stroke-width="2.000000"
	d="
M331.000000,459.000000 
	C333.665466,461.614624 333.777008,465.438965 335.500000,468.500000 
"/>
<path fill="none" opacity="1.000000" stroke="#f0eaff" stroke-linecap="round" stroke-linejoin="round" stroke-width="3.000000"
	d="
M575.000000,685.000000 
	C576.533997,687.982300 576.767883,691.306702 577.500000,694.500000 
"/>
<path fill="none" opacity="1.000000" stroke="#f0eaff" stroke-linecap="round" stroke-linejoin="round" stroke-width="2.000000"
	d="
M435.500000,349.500000 
	C435.633850,354.714111 439.786316,358.492981 440.500000,363.500000 
"/>
<path fill="none" opacity="1.000000" stroke="#f0eaff" stroke-linecap="round" stroke-linejoin="round" stroke-width="6.000000"
	d="
M528.500000,394.500000 
	C527.784668,395.638885 527.982117,397.471527 526.478577,397.929657 
	C525.403259,398.257324 524.186401,398.850403 522.947021,397.550537 
	C521.234497,395.754486 522.258362,394.698944 523.500000,393.500000 
"/>
<path fill="none" opacity="1.000000" stroke="#f0eaff" stroke-linecap="round" stroke-linejoin="round" stroke-width="3.000000"
	d="
M357.000000,351.000000 
	C353.570709,352.356079 350.406036,354.109070 348.000000,357.000000 
"/>
<path fill="none" opacity="1.000000" stroke="#f0eaff" stroke-linecap="round" stroke-linejoin="round" stroke-width="2.000000"
	d="
M588.000000,419.500000 
	C586.527039,422.373383 588.472961,425.626617 587.000000,428.500000 
"/>
<path fill="none" opacity="1.000000" stroke="#f0eaff" stroke-linecap="round" stroke-linejoin="round" stroke-width="2.000000"
	d="
M589.000000,419.500000 
	C590.153687,422.445160 589.176331,425.508728 589.500000,428.500000 
"/>
<path fill="none" opacity="1.000000" stroke="#f0eaff" stroke-linecap="round" stroke-linejoin="round" stroke-width="2.000000"
	d="
M244.500000,728.500000 
	C245.020142,731.311340 243.349014,734.380493 245.500000,737.000000 
"/>
<path fill="none" opacity="1.000000" stroke="#f0eaff" stroke-linecap="round" stroke-linejoin="round" stroke-width="2.000000"
	d="
M528.500000,357.500000 
	C525.742310,358.714264 523.454041,361.258636 520.000000,360.500000 
"/>
<path fill="none" opacity="1.000000" stroke="#f0eaff" stroke-linecap="round" stroke-linejoin="round" stroke-width="3.000000"
	d="
M559.500000,397.499969 
	C556.833313,398.166626 554.166687,398.833313 551.500000,399.499969 
"/>
<path fill="none" opacity="1.000000" stroke="#f0eaff" stroke-linecap="round" stroke-linejoin="round" stroke-width="2.000000"
	d="
M463.000000,219.500000 
	C462.320770,223.800171 458.908051,226.323578 456.500000,229.500000 
"/>
<path fill="none" opacity="1.000000" stroke="#f0eaff" stroke-linecap="round" stroke-linejoin="round" stroke-width="2.000000"
	d="
M478.000000,225.000000 
	C478.967896,227.557770 481.344910,228.393234 483.500000,229.500000 
"/>
<path fill="none" opacity="1.000000" stroke="#f0eaff" stroke-linecap="round" stroke-linejoin="round" stroke-width="2.000000"
	d="
M771.500000,1191.000000 
	C771.911316,1192.819214 770.561707,1194.958496 772.500000,1196.500000 
"/>
<path fill="none" opacity="1.000000" stroke="#f0eaff" stroke-linecap="round" stroke-linejoin="round" stroke-width="2.000000"
	d="
M580.000000,469.500000 
	C577.322083,470.108765 576.833069,472.249817 576.500000,474.500000 
"/>
<path fill="none" opacity="1.000000" stroke="#f0eaff" stroke-linecap="round" stroke-linejoin="round" stroke-width="3.000000"
	d="
M727.000000,1110.500000 
	C728.927917,1111.874756 726.978149,1114.659424 729.000000,1116.000000 
"/>
<path fill="none" opacity="1.000000" stroke="#f0eaff" stroke-linecap="round" stroke-linejoin="round" stroke-width="2.000000"
	d="
M456.000000,223.000000 
	C454.915344,224.915344 453.415344,226.415344 451.500000,227.500000 
"/>
<path fill="none" opacity="1.000000" stroke="#f0eaff" stroke-linecap="round" stroke-linejoin="round" stroke-width="2.000000"
	d="
M755.500000,935.500000 
	C753.763977,935.993347 752.494019,937.651794 750.500000,937.500000 
"/>
<path fill="none" opacity="1.000000" stroke="#f0eaff" stroke-linecap="round" stroke-linejoin="round" stroke-width="5.000000"
	d="
M376.500000,380.500000 
	C374.558746,386.617523 369.439880,386.379761 364.500000,386.500000 
"/>
<path fill="none" opacity="1.000000" stroke="#f0eaff" stroke-linecap="round" stroke-linejoin="round" stroke-width="2.000000"
	d="
M388.500000,346.000000 
	C387.393524,344.803680 386.459473,343.331482 384.500000,343.500000 
"/>
<path fill="none" opacity="1.000000" stroke="#f0eaff" stroke-linecap="round" stroke-linejoin="round" stroke-width="2.000000"
	d="
M245.500000,719.500000 
	C245.762955,721.015625 244.778061,722.808594 246.500000,724.000000 
"/>
<path fill="none" opacity="1.000000" stroke="#f0eaff" stroke-linecap="round" stroke-linejoin="round" stroke-width="2.000000"
	d="
M103.000000,907.000000 
	C104.500000,908.166687 106.000000,909.333313 107.500000,910.500000 
"/>
<path fill="none" opacity="1.000000" stroke="#f0eaff" stroke-linecap="round" stroke-linejoin="round" stroke-width="2.000000"
	d="
M534.000000,357.500000 
	C532.500000,358.166656 531.000000,358.833313 529.500000,359.500000 
"/>
<path fill="none" opacity="1.000000" stroke="#f0eaff" stroke-linecap="round" stroke-linejoin="round" stroke-width="1.000000"
	d="
M432.000000,352.000000 
	C432.834717,353.274567 433.031677,356.037231 435.500000,353.500000 
"/>
<path fill="none" opacity="1.000000" stroke="#f0eaff" stroke-linecap="round" stroke-linejoin="round" stroke-width="2.000000"
	d="
M300.000000,941.000000 
	C297.828461,941.450317 298.668518,943.191284 298.500000,944.500000 
"/>
<path fill="none" opacity="1.000000" stroke="#f0eaff" stroke-linecap="round" stroke-linejoin="round" stroke-width="2.000000"
	d="
M305.000000,400.500000 
	C303.941986,401.721924 304.768219,403.179352 304.500000,404.500000 
"/>
<path fill="none" opacity="1.000000" stroke="#f0eaff" stroke-linecap="round" stroke-linejoin="round" stroke-width="2.000000"
	d="
M365.500000,382.500000 
	C367.006927,383.103027 368.091095,384.199280 369.000000,385.500000 
"/>
<path fill="none" opacity="1.000000" stroke="#f0eaff" stroke-linecap="round" stroke-linejoin="round" stroke-width="2.000000"
	d="
M528.500000,383.500000 
	C528.336304,384.810791 526.355225,385.342712 527.000000,387.000000 
"/>
<path fill="none" opacity="1.000000" stroke="#f0eaff" stroke-linecap="round" stroke-linejoin="round" stroke-width="2.000000"
	d="
M374.500000,341.500000 
	C372.571625,341.651489 370.110931,339.851196 369.000000,343.000000 
"/>
<path fill="none" opacity="1.000000" stroke="#f0eaff" stroke-linecap="round" stroke-linejoin="round" stroke-width="2.000000"
	d="
M357.500000,349.500000 
	C357.426117,351.500000 357.426117,351.500000 360.500000,351.500000 
"/>
<path fill="none" opacity="1.000000" stroke="#f0eaff" stroke-linecap="round" stroke-linejoin="round" stroke-width="2.000000"
	d="
M776.500000,1185.000000 
	C775.038452,1184.523560 776.003967,1182.024414 774.000000,1181.993408 
	C771.996033,1182.024414 772.961548,1184.523560 771.500000,1185.000000 
"/>
<path fill="none" opacity="1.000000" stroke="#f0eaff" stroke-linecap="round" stroke-linejoin="round" stroke-width="2.000000"
	d="
M435.000000,854.000000 
	C437.042450,854.898682 434.939209,856.389648 435.500000,857.500000 
"/>
</svg>